<svg version="1.1" xmlns="http://www.w3.org/2000/svg">  
  <defs>
    <!-- Loader -->
    <symbol id="loader" viewBox="0 0 100 100">
      <path d="M10,50c0,0,0,0.5,0.1,1.4c0,0.5,0.1,1,0.2,1.7c0,0.3,0.1,0.7,0.1,1.1c0.1,0.4,0.1,0.8,0.2,1.2c0.2,0.8,0.3,1.8,0.5,2.8 c0.3,1,0.6,2.1,0.9,3.2c0.3,1.1,0.9,2.3,1.4,3.5c0.5,1.2,1.2,2.4,1.8,3.7c0.3,0.6,0.8,1.2,1.2,1.9c0.4,0.6,0.8,1.3,1.3,1.9 c1,1.2,1.9,2.6,3.1,3.7c2.2,2.5,5,4.7,7.9,6.7c3,2,6.5,3.4,10.1,4.6c3.6,1.1,7.5,1.5,11.2,1.6c4-0.1,7.7-0.6,11.3-1.6 c3.6-1.2,7-2.6,10-4.6c3-2,5.8-4.2,7.9-6.7c1.2-1.2,2.1-2.5,3.1-3.7c0.5-0.6,0.9-1.3,1.3-1.9c0.4-0.6,0.8-1.3,1.2-1.9 c0.6-1.3,1.3-2.5,1.8-3.7c0.5-1.2,1-2.4,1.4-3.5c0.3-1.1,0.6-2.2,0.9-3.2c0.2-1,0.4-1.9,0.5-2.8c0.1-0.4,0.1-0.8,0.2-1.2 c0-0.4,0.1-0.7,0.1-1.1c0.1-0.7,0.1-1.2,0.2-1.7C90,50.5,90,50,90,50s0,0.5,0,1.4c0,0.5,0,1,0,1.7c0,0.3,0,0.7,0,1.1 c0,0.4-0.1,0.8-0.1,1.2c-0.1,0.9-0.2,1.8-0.4,2.8c-0.2,1-0.5,2.1-0.7,3.3c-0.3,1.2-0.8,2.4-1.2,3.7c-0.2,0.7-0.5,1.3-0.8,1.9 c-0.3,0.7-0.6,1.3-0.9,2c-0.3,0.7-0.7,1.3-1.1,2c-0.4,0.7-0.7,1.4-1.2,2c-1,1.3-1.9,2.7-3.1,4c-2.2,2.7-5,5-8.1,7.1 c-0.8,0.5-1.6,1-2.4,1.5c-0.8,0.5-1.7,0.9-2.6,1.3L66,87.7l-1.4,0.5c-0.9,0.3-1.8,0.7-2.8,1c-3.8,1.1-7.9,1.7-11.8,1.8L47,90.8 c-1,0-2-0.2-3-0.3l-1.5-0.2l-0.7-0.1L41.1,90c-1-0.3-1.9-0.5-2.9-0.7c-0.9-0.3-1.9-0.7-2.8-1L34,87.7l-1.3-0.6 c-0.9-0.4-1.8-0.8-2.6-1.3c-0.8-0.5-1.6-1-2.4-1.5c-3.1-2.1-5.9-4.5-8.1-7.1c-1.2-1.2-2.1-2.7-3.1-4c-0.5-0.6-0.8-1.4-1.2-2 c-0.4-0.7-0.8-1.3-1.1-2c-0.3-0.7-0.6-1.3-0.9-2c-0.3-0.7-0.6-1.3-0.8-1.9c-0.4-1.3-0.9-2.5-1.2-3.7c-0.3-1.2-0.5-2.3-0.7-3.3 c-0.2-1-0.3-2-0.4-2.8c-0.1-0.4-0.1-0.8-0.1-1.2c0-0.4,0-0.7,0-1.1c0-0.7,0-1.2,0-1.7C10,50.5,10,50,10,50z" fill="#337ab7">
        <animateTransform attributeName="transform" type="rotate" from="0 50 50" to="360 50 50" repeatCount="indefinite" dur="1s"></animateTransform>
      </path>
    </symbol>
    <!-- Search -->
    <symbol id="search" viewBox="0 0 20 20">
      <path d="M8.68127 15.3389C5.00749 15.3389 2.0188 12.351 2.0188 8.67887C2.0188 5.0067 5.00749 2.01887 8.68127 2.01887C12.3551 2.01887 15.3436 5.0067 15.3436 8.67887C15.3436 12.351 12.3551 15.3389 8.68127 15.3389ZM18.851 18.1306L14.4556 13.7367C15.6425 12.385 16.3624 10.6147 16.3624 8.67887C16.3624 4.44462 12.9171 1 8.68127 1C4.44628 1 1 4.44462 1 8.67887C1 12.9131 4.44628 16.3577 8.68127 16.3577C10.6145 16.3577 12.3831 15.6394 13.7347 14.4567L18.1301 18.8506C18.2295 18.9499 18.3602 19 18.4901 19C18.6209 19 18.7508 18.9499 18.851 18.8506C19.0496 18.6519 19.0496 18.3292 18.851 18.1306Z" />
      <path d="M18.851 18.1306L19.0277 17.9538L19.0277 17.9538L18.851 18.1306ZM14.4556 13.7367L14.2677 13.5717L14.1131 13.7478L14.2788 13.9135L14.4556 13.7367ZM13.7347 14.4567L13.9115 14.2799L13.7461 14.1146L13.5701 14.2686L13.7347 14.4567ZM18.1301 18.8506L18.3069 18.6738L18.3069 18.6738L18.1301 18.8506ZM18.851 18.8506L19.027 19.0281L19.0277 19.0273L18.851 18.8506ZM8.68127 15.0889C5.14548 15.0889 2.2688 12.2129 2.2688 8.67887H1.7688C1.7688 12.4892 4.8695 15.5889 8.68127 15.5889V15.0889ZM2.2688 8.67887C2.2688 5.14485 5.14548 2.26887 8.68127 2.26887V1.76887C4.8695 1.76887 1.7688 4.86854 1.7688 8.67887H2.2688ZM8.68127 2.26887C12.2171 2.26887 15.0936 5.14484 15.0936 8.67887H15.5936C15.5936 4.86855 12.4931 1.76887 8.68127 1.76887V2.26887ZM15.0936 8.67887C15.0936 12.2129 12.2171 15.0889 8.68127 15.0889V15.5889C12.4931 15.5889 15.5936 12.4892 15.5936 8.67887H15.0936ZM19.0277 17.9538L14.6323 13.5599L14.2788 13.9135L18.6742 18.3074L19.0277 17.9538ZM14.6434 13.9017C15.8688 12.5062 16.6124 10.6779 16.6124 8.67887H16.1124C16.1124 10.5516 15.4163 12.2638 14.2677 13.5717L14.6434 13.9017ZM16.6124 8.67887C16.6124 4.30649 13.0551 0.75 8.68127 0.75V1.25C12.7791 1.25 16.1124 4.58276 16.1124 8.67887H16.6124ZM8.68127 0.75C4.3083 0.75 0.75 4.30646 0.75 8.67887H1.25C1.25 4.58278 4.58427 1.25 8.68127 1.25V0.75ZM0.75 8.67887C0.75 13.0513 4.3083 16.6077 8.68127 16.6077V16.1077C4.58427 16.1077 1.25 12.775 1.25 8.67887H0.75ZM8.68127 16.6077C10.6776 16.6077 12.5041 15.8658 13.8994 14.6448L13.5701 14.2686C12.2621 15.4131 10.5514 16.1077 8.68127 16.1077V16.6077ZM13.558 14.6335L17.9534 19.0274L18.3069 18.6738L13.9115 14.2799L13.558 14.6335ZM17.9534 19.0273C18.1012 19.1752 18.2963 19.25 18.4901 19.25V18.75C18.4241 18.75 18.3577 18.7246 18.3069 18.6738L17.9534 19.0273ZM18.4901 19.25C18.6852 19.25 18.8789 19.175 19.027 19.0281L18.6749 18.673C18.6227 18.7248 18.5565 18.75 18.4901 18.75V19.25ZM19.0277 19.0273C19.324 18.731 19.324 18.2501 19.0277 17.9538L18.6742 18.3073C18.7752 18.4084 18.7752 18.5727 18.6742 18.6738L19.0277 19.0273Z" />
    </symbol>
    <!-- Burger menu -->
    <svg id="burger" viewBox="0 0 16 14">
      <path d="M15 0H1C0.447715 0 0 0.447715 0 1C0 1.55228 0.447715 2 1 2H15C15.5523 2 16 1.55228 16 1C16 0.447715 15.5523 0 15 0Z" />
      <path d="M15 6H1C0.447715 6 0 6.44772 0 7C0 7.55228 0.447715 8 1 8H15C15.5523 8 16 7.55228 16 7C16 6.44772 15.5523 6 15 6Z" />
      <path d="M15 12H1C0.447715 12 0 12.4477 0 13C0 13.5523 0.447715 14 1 14H15C15.5523 14 16 13.5523 16 13C16 12.4477 15.5523 12 15 12Z" />
    </svg>
    <!-- Facebook -->
    <symbol id="facebook" viewBox="0 0 24 24">
      <path d="M9 8h-3v4h3v12h5v-12h3.642l.358-4h-4v-1.667c0-.955.192-1.333 1.115-1.333h2.885v-5h-3.808c-3.596 0-5.192 1.583-5.192 4.615v3.385z"/>
    </symbol>
    <!-- Twitter -->
    <symbol id="twitter" viewBox="0 0 24 24">
      <path d="M24 4.557c-.883.392-1.832.656-2.828.775 1.017-.609 1.798-1.574 2.165-2.724-.951.564-2.005.974-3.127 1.195-.897-.957-2.178-1.555-3.594-1.555-3.179 0-5.515 2.966-4.797 6.045-4.091-.205-7.719-2.165-10.148-5.144-1.29 2.213-.669 5.108 1.523 6.574-.806-.026-1.566-.247-2.229-.616-.054 2.281 1.581 4.415 3.949 4.89-.693.188-1.452.232-2.224.084.626 1.956 2.444 3.379 4.6 3.419-2.07 1.623-4.678 2.348-7.29 2.04 2.179 1.397 4.768 2.212 7.548 2.212 9.142 0 14.307-7.721 13.995-14.646.962-.695 1.797-1.562 2.457-2.549z"/>
    </symbol>
    <!-- Instagram -->
    <symbol id="instagram" viewBox="0 0 493 493">
      <path d="M85.1 13.2C68.9 19.5 55.2 27.9 41.5 41.6C27.8 55.2 19.4 69 13.1 85.1C6.99995 100.7 2.89995 118.6 1.69995 144.8C0.499951 171 0.199951 179.4 0.199951 246.2C0.199951 313 0.499951 321.4 1.69995 347.6C2.89995 373.8 7.09995 391.7 13.1 407.3C19.4 423.5 27.8 437.2 41.5 450.9C55.2 464.6 68.9 473 85.1 479.3C100.7 485.4 118.6 489.5 144.8 490.7C171 491.9 179.4 492.2 246.2 492.2C313 492.2 321.4 491.9 347.6 490.7C373.8 489.5 391.7 485.3 407.3 479.3C423.5 473 437.2 464.6 450.9 450.9C464.6 437.2 473 423.5 479.3 407.3C485.4 391.7 489.5 373.8 490.7 347.6C491.9 321.4 492.2 313 492.2 246.2C492.2 179.4 491.9 171 490.7 144.8C489.5 118.6 485.3 100.7 479.3 85.1C473 69 464.6 55.2 451 41.6C437.3 27.9 423.6 19.5 407.4 13.2C391.8 7.09999 373.9 2.99999 347.7 1.79999C321.5 0.599988 313.1 0.299988 246.3 0.299988C179.5 0.299988 171.1 0.599988 144.9 1.79999C118.6 2.89999 100.7 7.09999 85.1 13.2ZM345.6 46C369.6 47.1 382.6 51.1 391.3 54.5C402.8 59 411 64.3 419.6 72.9C428.2 81.5 433.5 89.7 438 101.2C441.4 109.9 445.4 122.9 446.5 146.9C447.7 172.8 447.9 180.6 447.9 246.3C447.9 312 447.6 319.8 446.5 345.7C445.4 369.7 441.4 382.7 438 391.4C433.5 402.9 428.2 411.1 419.6 419.7C411 428.3 402.8 433.6 391.3 438.1C382.6 441.5 369.6 445.5 345.6 446.6C319.7 447.8 311.9 448 246.2 448C180.5 448 172.7 447.7 146.8 446.6C122.8 445.5 109.8 441.5 101.1 438.1C89.6 433.6 81.4 428.3 72.8 419.7C64.2 411.1 58.9 402.9 54.4 391.4C51 382.7 47 369.7 45.9 345.7C44.7 319.8 44.5 312 44.5 246.3C44.5 180.6 44.8 172.8 45.9 146.9C47 122.9 51 109.9 54.4 101.2C58.9 89.7 64.2 81.5 72.8 72.9C81.4 64.3 89.6 59 101.1 54.5C109.8 51.1 122.8 47.1 146.8 46C172.7 44.8 180.5 44.6 246.2 44.6C311.9 44.6 319.7 44.8 345.6 46Z" fill="url(#paint0_radial)"/>
      <path d="M119.9 246.3C119.9 316.1 176.5 372.6 246.2 372.6C315.9 372.6 372.5 316 372.5 246.3C372.5 176.6 316 120 246.2 120C176.4 120 119.9 176.5 119.9 246.3ZM328.2 246.3C328.2 291.6 291.5 328.3 246.2 328.3C200.9 328.3 164.2 291.6 164.2 246.3C164.2 201 200.9 164.3 246.2 164.3C291.5 164.3 328.2 201 328.2 246.3Z" fill="url(#paint1_radial)"/>
      <path d="M377.6 144.5C393.892 144.5 407.1 131.292 407.1 115C407.1 98.7076 393.892 85.5 377.6 85.5C361.308 85.5 348.1 98.7076 348.1 115C348.1 131.292 361.308 144.5 377.6 144.5Z" fill="#654C9F"/>
      <defs>
        <radialGradient id="paint0_radial" cx="0" cy="0" r="1" gradientUnits="userSpaceOnUse" gradientTransform="translate(9.15191 447.164) rotate(-3.00009) scale(711.314 604.61)">
        <stop stop-color="#FED576"/>
        <stop offset="0.2634" stop-color="#F47133"/>
        <stop offset="0.6091" stop-color="#BC3081"/>
        <stop offset="1" stop-color="#4C63D2"/>
        </radialGradient>
        <radialGradient id="paint1_radial" cx="0" cy="0" r="1" gradientUnits="userSpaceOnUse" gradientTransform="translate(124.481 349.437) rotate(-3.00009) scale(365.269 310.475)">
        <stop stop-color="#FED576"/>
        <stop offset="0.2634" stop-color="#F47133"/>
        <stop offset="0.6091" stop-color="#BC3081"/>
        <stop offset="1" stop-color="#4C63D2"/>
        </radialGradient>
      </defs>
    </symbol>
    <!-- Location -->
    <symbol id="location" viewBox="0 0 156 178">
      <path d="M78 92.3088C66.5284 92.3088 57.1898 83.3664 57.1898 72.3814C57.1898 61.3965 66.5284 52.4541 78 52.4541C89.4716 52.4541 98.8102 61.3965 98.8102 72.3814C98.8102 83.3664 89.4716 92.3088 78 92.3088ZM78 42.4904C60.7969 42.4904 46.7847 55.8998 46.7847 72.3814C46.7847 88.863 60.7969 102.272 78 102.272C95.2031 102.272 109.215 88.863 109.215 72.3814C109.215 55.8998 95.2031 42.4904 78 42.4904ZM125.118 119.85L78 164.969L30.8822 119.85C4.90408 94.9741 4.90408 54.4966 30.8822 29.6207C43.8712 17.1744 60.9269 10.9554 78 10.9554C95.0644 10.9554 112.129 17.1827 125.118 29.6207C151.096 54.4966 151.096 94.9741 125.118 119.85ZM132.479 22.5714C102.435 -6.19045 53.5653 -6.19045 23.5206 22.5714C-6.50686 51.3332 -6.50686 98.1375 23.5206 126.899L74.3235 175.539C75.338 176.518 76.6733 177 78 177C79.3267 177 80.662 176.518 81.6765 175.539L132.479 126.899C162.507 98.1375 162.507 51.3332 132.479 22.5714Z" fill="#333333"/>
      <path d="M125.118 119.85L125.152 119.886L125.152 119.886L125.118 119.85ZM78 164.969L77.9654 165.005L78 165.038L78.0346 165.005L78 164.969ZM30.8822 119.85L30.8476 119.886L30.8476 119.886L30.8822 119.85ZM30.8822 29.6207L30.9168 29.6568L30.9168 29.6568L30.8822 29.6207ZM132.479 22.5714L132.514 22.5352L132.514 22.5352L132.479 22.5714ZM23.5206 22.5714L23.486 22.5352L23.486 22.5352L23.5206 22.5714ZM23.5206 126.899L23.486 126.935L23.486 126.935L23.5206 126.899ZM74.3235 175.539L74.3583 175.503L74.3581 175.503L74.3235 175.539ZM81.6765 175.539L81.6419 175.503L81.6417 175.503L81.6765 175.539ZM132.479 126.899L132.514 126.935L132.514 126.935L132.479 126.899ZM78 92.2588C66.5539 92.2588 57.2398 83.3367 57.2398 72.3814H57.1398C57.1398 83.396 66.5028 92.3588 78 92.3588V92.2588ZM57.2398 72.3814C57.2398 61.4261 66.5539 52.5041 78 52.5041V52.4041C66.5028 52.4041 57.1398 61.3668 57.1398 72.3814H57.2398ZM78 52.5041C89.4461 52.5041 98.7602 61.4261 98.7602 72.3814H98.8602C98.8602 61.3668 89.4972 52.4041 78 52.4041V52.5041ZM98.7602 72.3814C98.7602 83.3367 89.4461 92.2588 78 92.2588V92.3588C89.4972 92.3588 98.8602 83.396 98.8602 72.3814H98.7602ZM78 42.4404C60.7713 42.4404 46.7347 55.8702 46.7347 72.3814H46.8347C46.8347 55.9295 60.8224 42.5404 78 42.5404V42.4404ZM46.7347 72.3814C46.7347 88.8926 60.7713 102.322 78 102.322V102.222C60.8224 102.222 46.8347 88.8334 46.8347 72.3814H46.7347ZM78 102.322C95.2287 102.322 109.265 88.8926 109.265 72.3814H109.165C109.165 88.8334 95.1776 102.222 78 102.222V102.322ZM109.265 72.3814C109.265 55.8702 95.2287 42.4404 78 42.4404V42.5404C95.1776 42.5404 109.165 55.9295 109.165 72.3814H109.265ZM125.083 119.814L77.9654 164.933L78.0346 165.005L125.152 119.886L125.083 119.814ZM78.0346 164.933L30.9168 119.814L30.8476 119.886L77.9654 165.005L78.0346 164.933ZM30.9168 119.814C4.95922 94.9576 4.95922 54.5131 30.9168 29.6568L30.8476 29.5845C4.84894 54.4802 4.84894 94.9905 30.8476 119.886L30.9168 119.814ZM30.9168 29.6568C43.8959 17.22 60.939 11.0054 78 11.0054V10.9054C60.9149 10.9054 43.8466 17.1288 30.8476 29.5846L30.9168 29.6568ZM78 11.0054C95.0524 11.0054 112.104 17.2283 125.083 29.6568L125.152 29.5845C112.153 17.1371 95.0764 10.9054 78 10.9054V11.0054ZM125.083 29.6568C151.041 54.5131 151.041 94.9576 125.083 119.814L125.152 119.886C151.151 94.9905 151.151 54.4802 125.152 29.5845L125.083 29.6568ZM132.514 22.5352C102.45 -6.24508 53.5501 -6.24508 23.486 22.5352L23.5551 22.6075C53.5806 -6.13583 102.419 -6.13583 132.445 22.6075L132.514 22.5352ZM23.486 22.5352C-6.56199 51.3167 -6.56199 98.1539 23.486 126.935L23.5552 126.863C-6.45172 98.1211 -6.45172 51.3496 23.5552 22.6075L23.486 22.5352ZM23.486 126.935L74.2889 175.575L74.3581 175.503L23.5551 126.863L23.486 126.935ZM74.2888 175.575C75.3133 176.564 76.6614 177.05 78 177.05V176.95C76.6853 176.95 75.3627 176.473 74.3583 175.503L74.2888 175.575ZM78 177.05C79.3386 177.05 80.6867 176.564 81.7112 175.575L81.6417 175.503C80.6373 176.473 79.3147 176.95 78 176.95V177.05ZM81.711 175.575L132.514 126.935L132.445 126.863L81.6419 175.503L81.711 175.575ZM132.514 126.935C162.562 98.1539 162.562 51.3167 132.514 22.5352L132.445 22.6075C162.452 51.3496 162.452 98.1211 132.445 126.863L132.514 126.935Z" fill="#333333"/>
    </symbol>
    <!-- Distance -->
    <svg id="distance" viewBox="0 0 193 195">
      <path d="M116 91.3088C104.528 91.3088 95.1898 82.3664 95.1898 71.3814C95.1898 60.3965 104.528 51.4541 116 51.4541C127.472 51.4541 136.81 60.3965 136.81 71.3814C136.81 82.3664 127.472 91.3088 116 91.3088ZM116 41.4904C98.7969 41.4904 84.7847 54.8998 84.7847 71.3814C84.7847 87.863 98.7969 101.272 116 101.272C133.203 101.272 147.215 87.863 147.215 71.3814C147.215 54.8998 133.203 41.4904 116 41.4904ZM163.118 118.85L116 163.969L68.8822 118.85C42.9041 93.9741 42.9041 53.4966 68.8822 28.6207C81.8712 16.1744 98.9269 9.95537 116 9.95537C133.064 9.95537 150.129 16.1827 163.118 28.6207C189.096 53.4966 189.096 93.9741 163.118 118.85ZM170.479 21.5714C140.435 -7.19045 91.5653 -7.19045 61.5206 21.5714C31.4931 50.3332 31.4931 97.1375 61.5206 125.899L112.324 174.539C113.338 175.518 114.673 176 116 176C117.327 176 118.662 175.518 119.676 174.539L170.479 125.899C200.507 97.1375 200.507 50.3332 170.479 21.5714Z" />
      <path d="M0 190C0 187.239 2.23858 185 5 185H27C29.7614 185 32 187.239 32 190C32 192.761 29.7614 195 27 195H5C2.23858 195 0 192.761 0 190Z" />
      <path d="M43 190C43 187.239 45.2386 185 48 185H70C72.7614 185 75 187.239 75 190C75 192.761 72.7614 195 70 195H48C45.2386 195 43 192.761 43 190Z" />
      <path d="M86 190C86 187.239 88.2386 185 91 185H113C115.761 185 118 187.239 118 190C118 192.761 115.761 195 113 195H91C88.2386 195 86 192.761 86 190Z" />
    </svg>
    <!-- Star -->
    <symbol id="star" viewBox="0 0 24 24">
      <path d="M12 .587l3.668 7.568 8.332 1.151-6.064 5.828 1.48 8.279-7.416-3.967-7.417 3.967 1.481-8.279-6.064-5.828 8.332-1.151z"/>
    </symbol>
    <!-- Arrow left -->
    <symbol id="arrow-left" viewBox="0 0 96 153">
      <path d="M95.625 133.875L76.1366 153L6.68784e-06 76.5L76.1366 -1.70373e-06L95.625 19.125L38.25 76.5L95.625 133.875Z" />
    </symbol>
    <!-- Arrow right -->
    <symbol id="arrow-right" viewBox="0 0 97 153">
      <path d="M0.958374 19.125L20.4468 0L96.5834 76.5L20.4468 153L0.958374 133.875L58.3334 76.5L0.958374 19.125Z" />
    </symbol>
    <!-- Heart -->
    <symbol id="heart" viewBox="0 0 24 24">
      <path d="M6.28 3c3.236.001 4.973 3.491 5.72 5.031.75-1.547 2.469-5.021 5.726-5.021 2.058 0 4.274 1.309 4.274 4.182 0 3.442-4.744 7.851-10 13-5.258-5.151-10-9.559-10-13 0-2.676 1.965-4.193 4.28-4.192zm.001-2c-3.183 0-6.281 2.187-6.281 6.192 0 4.661 5.57 9.427 12 15.808 6.43-6.381 12-11.147 12-15.808 0-4.011-3.097-6.182-6.274-6.182-2.204 0-4.446 1.042-5.726 3.238-1.285-2.206-3.522-3.248-5.719-3.248z" />
    </symbol>
    <!-- Image -->
    <symbol id="image" viewBox="0 0 24 24">
      <path d="M24 22h-24v-20h24v20zm-1-19h-22v18h22v-18zm-1 16h-19l4-7.492 3 3.048 5.013-7.556 6.987 12zm-11.848-2.865l-2.91-2.956-2.574 4.821h15.593l-5.303-9.108-4.806 7.243zm-4.652-11.135c1.38 0 2.5 1.12 2.5 2.5s-1.12 2.5-2.5 2.5-2.5-1.12-2.5-2.5 1.12-2.5 2.5-2.5zm0 1c.828 0 1.5.672 1.5 1.5s-.672 1.5-1.5 1.5-1.5-.672-1.5-1.5.672-1.5 1.5-1.5z" fill="#333333"/>
    </symbol>
    <!-- Duration -->
    <symbol id="duration" viewBox="0 0 94 94">
      <path d="M62.061 58.3714C63.0799 59.386 63.0799 61.045 62.061 62.0639C61.5516 62.5733 60.881 62.8259 60.2148 62.8259C59.5487 62.8259 58.8825 62.5733 58.3687 62.0639L45.1539 48.8441C44.6619 48.3564 44.3876 47.6946 44.3876 47.0022V17.3056C44.3876 15.8643 45.5588 14.6974 47 14.6974C48.4413 14.6974 49.6125 15.8643 49.6125 17.3056V45.918L62.061 58.3714ZM47 87.933C24.4282 87.933 6.07115 69.5708 6.07115 47.0022C6.07115 24.4293 24.4282 6.06705 47 6.06705C69.5719 6.06705 87.9289 24.4293 87.9289 47.0022C87.9289 69.5708 69.5719 87.933 47 87.933ZM47 0.846191C21.5501 0.846191 0.846191 21.5511 0.846191 47.0022C0.846191 72.449 21.5501 93.1539 47 93.1539C72.45 93.1539 93.1539 72.449 93.1539 47.0022C93.1539 21.5511 72.45 0.846191 47 0.846191Z" />
      <path d="M0.64624 47.0023C0.64624 21.4407 21.4397 0.64624 47.0001 0.64624C72.5605 0.64624 93.3539 21.4407 93.3539 47.0023C93.3539 72.5595 72.5605 93.3539 47.0001 93.3539C21.4397 93.3539 0.64624 72.5595 0.64624 47.0023ZM47.0001 1.04624C21.6606 1.04624 1.04624 21.6616 1.04624 47.0023C1.04624 72.3386 21.6606 92.9539 47.0001 92.9539C72.3396 92.9539 92.9539 72.3386 92.9539 47.0023C92.9539 21.6616 72.3396 1.04624 47.0001 1.04624ZM47.0001 6.2671C24.5387 6.2671 6.2712 24.5398 6.2712 47.0023C6.2712 69.4604 24.5387 87.7331 47.0001 87.7331C69.4615 87.7331 87.729 69.4604 87.729 47.0023C87.729 24.5398 69.4614 6.2671 47.0001 6.2671ZM5.8712 47.0023C5.8712 24.3189 24.3178 5.8671 47.0001 5.8671C69.6824 5.8671 88.129 24.3189 88.129 47.0023C88.129 69.6813 69.6824 88.1331 47.0001 88.1331C24.3178 88.1331 5.8712 69.6813 5.8712 47.0023ZM47.0001 14.8974C45.6689 14.8974 44.5876 15.9753 44.5876 17.3057V47.0023C44.5876 47.6415 44.8408 48.2522 45.2947 48.7021L58.5096 61.9219C58.9845 62.3929 59.5995 62.6259 60.2149 62.6259C60.8308 62.6259 61.4496 62.3925 61.9196 61.9225C62.8606 60.9815 62.8601 59.4494 61.9199 58.5132L49.4126 46.0009V17.3057C49.4126 15.9753 48.3313 14.8974 47.0001 14.8974ZM44.1876 17.3057C44.1876 15.7535 45.4488 14.4974 47.0001 14.4974C48.5513 14.4974 49.8126 15.7535 49.8126 17.3057V45.8352L62.2022 58.2297C63.2997 59.3226 63.2993 61.1085 62.2025 62.2053C61.6536 62.7542 60.9313 63.0259 60.2149 63.0259C59.4979 63.0259 58.7805 62.7539 58.2279 62.206L45.0131 48.9862C44.4833 48.4608 44.1876 47.7475 44.1876 47.0023V17.3057Z" />
    </symbol>
    <!-- Elevation -->
    <symbol id="elevation" viewBox="0 0 111 111">
      <path d="M110.351 105.797L63.4196 43.0994C62.1754 41.4378 60.594 40.2201 58.8538 39.5426V23.9205H81.6812C81.6829 23.9205 81.6838 23.9196 81.6855 23.9205C83.4782 23.9205 84.9311 22.4639 84.9311 20.6685C84.9311 19.7192 84.5254 18.8647 83.8788 18.2711L77.5803 11.9602L83.976 5.55119C84.9049 4.62133 85.1821 3.22231 84.68 2.00706C84.178 0.792664 82.9939 0 81.6812 0H55.6081C53.8154 0 52.3625 1.45576 52.3625 3.25195V39.5426C50.6222 40.2201 49.0408 41.4378 47.7975 43.0994L0.865451 105.797C0.127581 106.783 0.009251 108.1 0.558639 109.202C1.10887 110.304 2.233 111 3.46194 111H107.754C108.984 111 110.107 110.304 110.658 109.202C111.207 108.101 111.089 106.783 110.351 105.797ZM58.8538 6.50391H73.8461L70.6952 9.66016C69.4282 10.9305 69.4282 12.9892 70.6952 14.2595L73.8461 17.4166H58.8538V6.50391ZM52.9905 47.0017C53.7495 45.9872 54.6793 45.4291 55.6081 45.4291C56.5379 45.4291 57.4676 45.988 58.2266 47.0017L73.656 67.6144L66.7303 75.2836L58.0153 65.6336C57.4 64.9518 56.526 64.5631 55.6081 64.5631C54.6911 64.5631 53.8171 64.9518 53.2018 65.6336L44.4868 75.2836L37.5612 67.6144L52.9905 47.0017ZM9.95317 104.496L33.5938 72.914L42.0805 82.3117C42.695 82.9934 43.5698 83.3821 44.4868 83.3821C45.4039 83.3821 46.2778 82.9934 46.8932 82.3117L55.6081 72.6617L64.3231 82.3117C64.9384 82.9934 65.8124 83.3821 66.7294 83.3821C67.6465 83.3821 68.5204 82.9934 69.1366 82.3117L77.6234 72.9149L101.263 104.496H9.95317Z" />
    </symbol>
    <!-- Pickup -->
    <symbol id="pickup" viewBox="0 0 78 75">
      <path d="M28.2629 58.2348C28.2629 56.9579 29.3016 55.9202 30.5798 55.9202H47.4202C48.6983 55.9202 49.7371 56.9579 49.7371 58.2348C49.7371 59.5116 48.6983 60.5493 47.4202 60.5493H30.5798C29.3016 60.5493 28.2629 59.5116 28.2629 58.2348ZM54.3594 58.2348C54.3594 56.8846 55.4561 55.789 56.8077 55.789C58.1553 55.789 59.2482 56.8846 59.2482 58.2348C59.2482 59.5849 58.1553 60.6766 56.8077 60.6766C55.4561 60.6766 54.3594 59.5849 54.3594 58.2348ZM18.748 58.2348C18.748 56.8846 19.8408 55.789 21.1923 55.789C22.5439 55.789 23.6406 56.8846 23.6406 58.2348C23.6406 59.5849 22.5439 60.6766 21.1923 60.6766C19.8408 60.6766 18.748 59.5849 18.748 58.2348ZM69.2921 23.0995V31.2468V47.3601H41.315V16.8463H69.2921V23.0995ZM69.2921 59.3187C69.2921 62.5321 66.6701 65.1515 63.4534 65.1515H63.0827H53.9231H24.0769H14.9173H14.5427C11.326 65.1515 8.70786 62.5321 8.70786 59.3187V51.9854H69.2921V59.3187ZM8.70786 31.2468V23.0995V16.8463H36.685V47.3601H8.70786V31.2468ZM18.6205 4.62915H59.3795C64.0443 4.62915 67.9406 7.87728 68.9909 12.2171H9.00906C10.0555 7.87728 13.9557 4.62915 18.6205 4.62915ZM75.6831 20.7849H73.9222V14.5317C73.9222 6.51939 67.4 0 59.3795 0H18.6205C10.6 0 4.07397 6.51939 4.07397 14.5317V20.7849H2.31309C1.0349 20.7849 0 21.8226 0 23.0995V31.2468C0 32.5237 1.0349 33.5614 2.31309 33.5614H4.07397V59.3187C4.07397 64.4224 7.75405 68.6658 12.6003 69.58V72.6854C12.6003 73.9623 13.6391 75 14.9173 75H24.0769C25.3551 75 26.3939 73.9623 26.3939 72.6854V69.7768H51.6061V72.6854C51.6061 73.9623 52.641 75 53.9231 75H63.0827C64.3609 75 65.3958 73.9623 65.3958 72.6854V69.58C70.2421 68.6658 73.9222 64.4224 73.9222 59.3187V33.5614H75.6831C76.9612 33.5614 78 32.5237 78 31.2468V23.0995C78 21.8226 76.9612 20.7849 75.6831 20.7849Z" />
    </symbol>
    <!-- Tick -->
    <symbol id="tick" viewBox="0 0 328 246">
      <path d="M25.4573 130.691C19.6427 124.747 10.2003 124.747 4.36091 130.691C-1.45364 136.61 -1.45364 146.289 4.36091 152.234L91.7282 241.529C94.6355 244.501 98.4621 246 102.264 246C106.091 246 109.892 244.501 112.825 241.529L323.639 26.001C329.454 20.0819 329.454 10.403 323.639 4.45841C317.825 -1.48614 308.382 -1.48614 302.543 4.45841L102.264 209.215L25.4573 130.691Z"/>
    </symbol>
    <!-- Season -->
    <svg id="season" viewBox="0 0 200 209">
      <path d="M138.203 153.832C138.203 146.738 144.009 140.98 151.163 140.98C158.316 140.98 164.122 146.738 164.122 153.832C164.122 160.926 158.316 166.684 151.163 166.684C144.009 166.684 138.203 160.926 138.203 153.832ZM87.0409 153.832C87.0409 146.738 92.8466 140.98 100 140.98C107.164 140.98 112.959 146.738 112.959 153.832C112.959 160.926 107.164 166.684 100 166.684C92.8466 166.684 87.0409 160.926 87.0409 153.832ZM35.8888 153.832C35.8888 146.738 41.6841 140.98 48.8479 140.98C56.0013 140.98 61.807 146.738 61.807 153.832C61.807 160.926 56.0013 166.684 48.8479 166.684C41.6841 166.684 35.8888 160.926 35.8888 153.832ZM138.203 111.903C138.203 104.808 144.009 99.0506 151.163 99.0506C158.316 99.0506 164.122 104.808 164.122 111.903C164.122 119.008 158.316 124.755 151.163 124.755C144.009 124.755 138.203 119.008 138.203 111.903ZM87.0409 111.903C87.0409 104.808 92.8466 99.0506 100 99.0506C107.164 99.0506 112.959 104.808 112.959 111.903C112.959 119.008 107.164 124.755 100 124.755C92.8466 124.755 87.0409 119.008 87.0409 111.903ZM35.8888 111.903C35.8888 104.808 41.6841 99.0506 48.8479 99.0506C56.0013 99.0506 61.807 104.808 61.807 111.903C61.807 119.008 56.0013 124.755 48.8479 124.755C41.6841 124.755 35.8888 119.008 35.8888 111.903ZM186.93 62.0156H13.0807V43.5803C13.0807 34.4501 20.5659 27.0163 29.7824 27.0163H41.7152V34.1108C41.7152 37.514 44.504 40.2799 47.9459 40.2799C51.3775 40.2799 54.1663 37.514 54.1663 34.1108V27.0163H145.854V34.1108C145.854 37.514 148.643 40.2799 152.075 40.2799C155.506 40.2799 158.285 37.514 158.285 34.1108V27.0163H170.218C179.434 27.0163 186.93 34.4501 186.93 43.5803V62.0156ZM186.93 179.434C186.93 188.574 179.434 196.008 170.218 196.008H29.7824C20.5659 196.008 13.0807 188.574 13.0807 179.434V74.3537H186.93V179.434ZM170.218 14.6782H158.285V6.82289C158.285 3.40933 155.506 0.653809 152.075 0.653809C148.643 0.653809 145.854 3.40933 145.854 6.82289V14.6782H54.1663V6.82289C54.1663 3.40933 51.3775 0.653809 47.9459 0.653809C44.504 0.653809 41.7152 3.40933 41.7152 6.82289V14.6782H29.7824C13.7132 14.6782 0.640015 27.6435 0.640015 43.5803V179.434C0.640015 195.381 13.7132 208.346 29.7824 208.346H170.218C186.297 208.346 199.36 195.381 199.36 179.434V43.5803C199.36 27.6435 186.297 14.6782 170.218 14.6782Z" />
      <path d="M41.6152 6.82291C41.6152 3.35313 44.4498 0.553833 47.9459 0.553833C51.4318 0.553833 54.2663 3.35324 54.2663 6.82291V14.5782H145.755V6.82291C145.755 3.35324 148.589 0.553833 152.075 0.553833C155.561 0.553833 158.385 3.35346 158.385 6.82291V14.5782H170.218C186.352 14.5782 199.46 27.5876 199.46 43.5803V179.434C199.46 195.437 186.352 208.446 170.218 208.446H29.7825C13.6587 208.446 0.540039 195.437 0.540039 179.434V43.5803C0.540039 27.5875 13.6587 14.5782 29.7825 14.5782H41.6152V6.82291ZM47.9459 0.753833C44.5582 0.753833 41.8152 3.46558 41.8152 6.82291V14.7782H29.7825C13.7676 14.7782 0.740039 27.6996 0.740039 43.5803V179.434C0.740039 195.325 13.7676 208.246 29.7825 208.246H170.218C186.243 208.246 199.26 195.325 199.26 179.434V43.5803C199.26 27.6995 186.243 14.7782 170.218 14.7782H158.185V6.82291C158.185 3.46525 155.452 0.753833 152.075 0.753833C148.698 0.753833 145.955 3.46547 145.955 6.82291V14.7782H54.0663V6.82291C54.0663 3.46547 51.3232 0.753833 47.9459 0.753833ZM29.7825 27.1164C20.6204 27.1164 13.1808 34.5061 13.1808 43.5803V61.9156H186.83V43.5803C186.83 34.5061 179.38 27.1164 170.218 27.1164H158.385V34.1108C158.385 37.5699 155.561 40.3799 152.075 40.3799C148.589 40.3799 145.755 37.5701 145.755 34.1108V27.1164H54.2663V34.1108C54.2663 37.5701 51.4319 40.3799 47.9459 40.3799C44.4497 40.3799 41.6152 37.5702 41.6152 34.1108V27.1164H29.7825ZM12.9808 43.5803C12.9808 34.3941 20.5115 26.9164 29.7825 26.9164H41.8152V34.1108C41.8152 37.458 44.5583 40.1799 47.9459 40.1799C51.3231 40.1799 54.0663 37.4581 54.0663 34.1108V26.9164H145.955V34.1108C145.955 37.4581 148.698 40.1799 152.075 40.1799C155.452 40.1799 158.185 37.4583 158.185 34.1108V26.9164H170.218C179.489 26.9164 187.03 34.394 187.03 43.5803V62.1156H12.9808V43.5803ZM12.9808 74.2538H187.03V179.434C187.03 188.63 179.489 196.108 170.218 196.108H29.7825C20.5114 196.108 12.9808 188.63 12.9808 179.434V74.2538ZM13.1808 74.4538V179.434C13.1808 188.518 20.6205 195.908 29.7825 195.908H170.218C179.38 195.908 186.83 188.518 186.83 179.434V74.4538H13.1808ZM48.8479 99.1506C41.7386 99.1506 35.9888 104.864 35.9888 111.903C35.9888 118.952 41.7385 124.655 48.8479 124.655C55.9469 124.655 61.707 118.952 61.707 111.903C61.707 104.864 55.9469 99.1506 48.8479 99.1506ZM35.7888 111.903C35.7888 104.752 41.6296 98.9506 48.8479 98.9506C56.0558 98.9506 61.907 104.752 61.907 111.903C61.907 119.064 56.0557 124.855 48.8479 124.855C41.6297 124.855 35.7888 119.064 35.7888 111.903ZM100 99.1506C92.9011 99.1506 87.1409 104.864 87.1409 111.903C87.1409 118.952 92.901 124.655 100 124.655C107.109 124.655 112.859 118.952 112.859 111.903C112.859 104.864 107.109 99.1506 100 99.1506ZM86.9409 111.903C86.9409 104.752 92.7922 98.9506 100 98.9506C107.218 98.9506 113.059 104.752 113.059 111.903C113.059 119.064 107.218 124.855 100 124.855C92.7922 124.855 86.9409 119.064 86.9409 111.903ZM151.163 99.1506C144.064 99.1506 138.303 104.864 138.303 111.903C138.303 118.952 144.064 124.655 151.163 124.655C158.262 124.655 164.022 118.952 164.022 111.903C164.022 104.864 158.262 99.1506 151.163 99.1506ZM138.103 111.903C138.103 104.752 143.955 98.9506 151.163 98.9506C158.37 98.9506 164.222 104.752 164.222 111.903C164.222 119.064 158.37 124.855 151.163 124.855C143.955 124.855 138.103 119.064 138.103 111.903ZM48.8479 141.08C41.7386 141.08 35.9888 146.794 35.9888 153.832C35.9888 160.871 41.7386 166.584 48.8479 166.584C55.9469 166.584 61.707 160.87 61.707 153.832C61.707 146.794 55.9469 141.08 48.8479 141.08ZM35.7888 153.832C35.7888 146.682 41.6296 140.88 48.8479 140.88C56.0558 140.88 61.907 146.682 61.907 153.832C61.907 160.982 56.0558 166.784 48.8479 166.784C41.6296 166.784 35.7888 160.982 35.7888 153.832ZM100 141.08C92.9011 141.08 87.1409 146.794 87.1409 153.832C87.1409 160.87 92.9011 166.584 100 166.584C107.109 166.584 112.859 160.871 112.859 153.832C112.859 146.794 107.109 141.08 100 141.08ZM86.9409 153.832C86.9409 146.682 92.7922 140.88 100 140.88C107.218 140.88 113.059 146.682 113.059 153.832C113.059 160.982 107.218 166.784 100 166.784C92.7922 166.784 86.9409 160.982 86.9409 153.832ZM151.163 141.08C144.064 141.08 138.303 146.794 138.303 153.832C138.303 160.87 144.064 166.584 151.163 166.584C158.262 166.584 164.022 160.87 164.022 153.832C164.022 146.794 158.262 141.08 151.163 141.08ZM138.103 153.832C138.103 146.682 143.955 140.88 151.163 140.88C158.37 140.88 164.222 146.682 164.222 153.832C164.222 160.982 158.37 166.784 151.163 166.784C143.955 166.784 138.103 160.982 138.103 153.832Z" />
    </svg>
  </defs>
</svg>