<svg version="1.1" xmlns="http://www.w3.org/2000/svg">  
  <defs>
    <!-- Logo -->
    <symbol id="logo" viewBox="0 0 610 411">
      <path d="M609 199L593.5 203.5C591.5 197 587.5 193.167 584.5 192C581 191.5 575.5 191 573 196C569.5 203 574.667 207.167 578 209.5L597 220.5C601.167 223.167 609.5 231.4 609.5 243C609.5 254.6 601.167 261.833 597 264C594.167 265.833 585.3 268.9 572.5 266.5C559.7 264.1 553.833 249.833 552.5 243L569 239.5C570 245.5 571.742 249.523 578 253C582.5 255.5 590.931 251.912 592 245.5C593 239.5 588.833 235.167 586 233L569.5 223C564.667 220.833 555 213.4 555 201C555 188.6 563.5 180.5 571 179C575.5 177.5 581.5 176.5 591.5 179C602.156 181.664 607.667 193.333 609 199Z" />
      <path d="M609 59L544 58V75.5H566.5L566 159H585.5L586.5 75.5L609 76V59Z" />
      <path d="M315.712 89.5051H296.212L295.212 81.0051C295.045 78.1718 291.412 75 282.212 75C273.012 75 271.712 80.1718 271.712 84.0051V130.505C271.379 134.172 273.112 141.605 282.712 142.005C292.312 142.405 295.712 134.505 295.712 130.005V122.005H282.212V105.505L315.712 106.005L315.212 157.505H305.212L302.212 149.005C300.712 150.005 298.212 159.005 277.712 158.505C257.302 158.007 252.212 139.172 252.212 130.005V90.5051C250.879 78.8384 254.212 57.4 282.212 57C310.212 56.6 316.545 77.8384 315.712 89.5051Z" />
      <path d="M306.931 205.997H290.119L289.256 198.608C289.113 196.144 286.842 191.218 278.91 191.218C270.978 191.218 268.995 197.883 268.995 201.216V241.641C268.708 244.828 270.202 251.29 278.479 251.638C286.756 251.986 289.688 245.118 289.688 241.206V234.251H278.048V219.907L306.931 220.341L306.5 265.113H297.878L295.292 257.724C293.998 258.593 291.843 266.417 274.168 265.983C256.572 265.55 252.183 249.175 252.183 241.206V206.866C251.033 196.724 254.769 176.352 278.91 176.004C303.051 175.657 307.65 195.855 306.931 205.997Z" />
      <path fill-rule="evenodd" clip-rule="evenodd" d="M333 58H364C373.667 58 393.4 61.9 395 81.5C396.6 101.1 385.667 110.667 380 113L398.5 158H377.5L361 117H352L351.5 158H332L333 58ZM352.5 73L352 100.5H365C368.667 100.167 376 99 376 86C376 75.1926 367.333 72.8333 363.5 73H352.5Z" />
      <path d="M464 58H411L410 159H465V142L430 141.5V115.5H456V98H430V75H464V58Z" />
      <path d="M542.127 179H495.873L495 266H543V251.356L512.455 250.926V228.53H535.145V213.455H512.455V193.644H542.127V179Z" />
      <path fill-rule="evenodd" clip-rule="evenodd" d="M471 159L497 58H522L546 159H527L522.5 138H496L490 159H471ZM509.5 80.5L499 121H518.5L509.5 80.5Z" />
      <path d="M339 177.5H322V244.5C322.167 251.667 328.2 266.1 351 266.5C373.8 266.9 379.5 249.667 379.5 241V177.5H363L362.5 234.5L362.5 234.663C362.501 240.697 362.503 251.5 351 251.5C339 251.5 339 241 339 234.5V177.5Z" />
      <path d="M412.5 178H395.5L395 265.5H412L412.5 178Z" />
      <path fill-rule="evenodd" clip-rule="evenodd" d="M428 178H454C462.667 178 481.5 182.662 481.5 201.5C481.5 209.231 481.579 215.915 481.642 221.332C481.739 229.578 481.802 234.891 481.5 236.5C481.5 246.5 477.517 262.498 462 264.5C448.032 266.302 435.011 265.804 428.793 265.566C428.111 265.539 427.511 265.516 427 265.5L428 178ZM445 193V251L455 250.5C458.5 250.167 465.5 246.5 465.5 234.5V213C465.667 206.667 465 193.95 456 193.5C448 193.1 445.333 193 445 193Z" />
      <path fill-rule="evenodd" clip-rule="evenodd" d="M211.059 0L210.559 41.5H189.559C185.559 41.5 176.959 42.8 174.559 48C172.159 53.2 171.892 55.1667 172.059 55.5V58C185.559 69.3333 212.159 100.9 210.559 136.5C208.959 172.1 190.892 199.667 182.059 209C171.392 220.667 140.959 243.7 104.559 242.5C68.159 241.3 58.059 239.667 57.559 239C52.8924 239.167 42.959 242.8 40.559 256C38.159 269.2 47.559 274.167 52.559 275C55.8924 275.333 59.1 277.4 65.5 275C67.252 274.343 76.3923 271.553 79 270.5C88.3017 267.631 87.5 267 96.5 264C107.5 260.333 113.566 259.197 116.423 258.677C126.901 256.771 135 256 152 257.5C175 258.677 190.559 268.5 206.559 311C222.559 353.5 189.059 386.5 182.559 392C176.059 397.5 150.059 413.5 122.059 410.5C94.059 407.5 69.059 398 53.559 373C41.159 353 41.059 331.667 42.559 323.5C31.2257 319.333 7.55903 306.4 3.55903 288C-1.44097 265 -2.94097 239 11.059 219C19.2055 207.362 22.7315 204.013 23.9845 203.757C15.335 192.42 -0.505656 164.817 1.05902 139C3.05902 106 13.559 80 32.559 64C47.759 51.2 57.8924 45 61.059 43.5C69.059 40.3333 88.459 34.1 102.059 34.5C115.659 34.9 130.059 37.3333 135.559 38.5C135.226 31.3333 137.959 15.3 151.559 8.5C165.159 1.7 196.892 0 211.059 0ZM143 137.5C143 158.763 125.763 176 104.5 176C83.237 176 66 158.763 66 137.5C66 116.237 83.237 99 104.5 99C125.763 99 143 116.237 143 137.5ZM89 324.5C92 323.333 96.6 322.4 99 322L99.1766 321.971C102.15 321.474 105.915 320.846 110 321.5C114.167 322.167 123.2 324.7 126 329.5C126.863 330.979 127.604 332.064 128.224 332.97C130.118 335.74 130.877 336.849 130.5 342.5C130 350 122 357.5 118 359C114 360.5 107.5 362 102 360.5C96.5 359 89 356.5 86.5 351.5C86.2583 351.017 86.0167 350.543 85.7786 350.076C83.5541 345.713 81.645 341.968 83 337C84.5 331.5 86.5 325.413 89 324.5Z" />
    </symbol>

    <!-- Loader -->
    <symbol id="loader" viewBox="0 0 100 100">
      <path d="M10,50c0,0,0,0.5,0.1,1.4c0,0.5,0.1,1,0.2,1.7c0,0.3,0.1,0.7,0.1,1.1c0.1,0.4,0.1,0.8,0.2,1.2c0.2,0.8,0.3,1.8,0.5,2.8 c0.3,1,0.6,2.1,0.9,3.2c0.3,1.1,0.9,2.3,1.4,3.5c0.5,1.2,1.2,2.4,1.8,3.7c0.3,0.6,0.8,1.2,1.2,1.9c0.4,0.6,0.8,1.3,1.3,1.9 c1,1.2,1.9,2.6,3.1,3.7c2.2,2.5,5,4.7,7.9,6.7c3,2,6.5,3.4,10.1,4.6c3.6,1.1,7.5,1.5,11.2,1.6c4-0.1,7.7-0.6,11.3-1.6 c3.6-1.2,7-2.6,10-4.6c3-2,5.8-4.2,7.9-6.7c1.2-1.2,2.1-2.5,3.1-3.7c0.5-0.6,0.9-1.3,1.3-1.9c0.4-0.6,0.8-1.3,1.2-1.9 c0.6-1.3,1.3-2.5,1.8-3.7c0.5-1.2,1-2.4,1.4-3.5c0.3-1.1,0.6-2.2,0.9-3.2c0.2-1,0.4-1.9,0.5-2.8c0.1-0.4,0.1-0.8,0.2-1.2 c0-0.4,0.1-0.7,0.1-1.1c0.1-0.7,0.1-1.2,0.2-1.7C90,50.5,90,50,90,50s0,0.5,0,1.4c0,0.5,0,1,0,1.7c0,0.3,0,0.7,0,1.1 c0,0.4-0.1,0.8-0.1,1.2c-0.1,0.9-0.2,1.8-0.4,2.8c-0.2,1-0.5,2.1-0.7,3.3c-0.3,1.2-0.8,2.4-1.2,3.7c-0.2,0.7-0.5,1.3-0.8,1.9 c-0.3,0.7-0.6,1.3-0.9,2c-0.3,0.7-0.7,1.3-1.1,2c-0.4,0.7-0.7,1.4-1.2,2c-1,1.3-1.9,2.7-3.1,4c-2.2,2.7-5,5-8.1,7.1 c-0.8,0.5-1.6,1-2.4,1.5c-0.8,0.5-1.7,0.9-2.6,1.3L66,87.7l-1.4,0.5c-0.9,0.3-1.8,0.7-2.8,1c-3.8,1.1-7.9,1.7-11.8,1.8L47,90.8 c-1,0-2-0.2-3-0.3l-1.5-0.2l-0.7-0.1L41.1,90c-1-0.3-1.9-0.5-2.9-0.7c-0.9-0.3-1.9-0.7-2.8-1L34,87.7l-1.3-0.6 c-0.9-0.4-1.8-0.8-2.6-1.3c-0.8-0.5-1.6-1-2.4-1.5c-3.1-2.1-5.9-4.5-8.1-7.1c-1.2-1.2-2.1-2.7-3.1-4c-0.5-0.6-0.8-1.4-1.2-2 c-0.4-0.7-0.8-1.3-1.1-2c-0.3-0.7-0.6-1.3-0.9-2c-0.3-0.7-0.6-1.3-0.8-1.9c-0.4-1.3-0.9-2.5-1.2-3.7c-0.3-1.2-0.5-2.3-0.7-3.3 c-0.2-1-0.3-2-0.4-2.8c-0.1-0.4-0.1-0.8-0.1-1.2c0-0.4,0-0.7,0-1.1c0-0.7,0-1.2,0-1.7C10,50.5,10,50,10,50z" fill="#337ab7">
        <animateTransform attributeName="transform" type="rotate" from="0 50 50" to="360 50 50" repeatCount="indefinite" dur="1s"></animateTransform>
      </path>
    </symbol>
    <!-- Search -->
    <symbol id="search" viewBox="0 0 20 20">
      <path d="M8.68127 15.3389C5.00749 15.3389 2.0188 12.351 2.0188 8.67887C2.0188 5.0067 5.00749 2.01887 8.68127 2.01887C12.3551 2.01887 15.3436 5.0067 15.3436 8.67887C15.3436 12.351 12.3551 15.3389 8.68127 15.3389ZM18.851 18.1306L14.4556 13.7367C15.6425 12.385 16.3624 10.6147 16.3624 8.67887C16.3624 4.44462 12.9171 1 8.68127 1C4.44628 1 1 4.44462 1 8.67887C1 12.9131 4.44628 16.3577 8.68127 16.3577C10.6145 16.3577 12.3831 15.6394 13.7347 14.4567L18.1301 18.8506C18.2295 18.9499 18.3602 19 18.4901 19C18.6209 19 18.7508 18.9499 18.851 18.8506C19.0496 18.6519 19.0496 18.3292 18.851 18.1306Z" />
      <path d="M18.851 18.1306L19.0277 17.9538L19.0277 17.9538L18.851 18.1306ZM14.4556 13.7367L14.2677 13.5717L14.1131 13.7478L14.2788 13.9135L14.4556 13.7367ZM13.7347 14.4567L13.9115 14.2799L13.7461 14.1146L13.5701 14.2686L13.7347 14.4567ZM18.1301 18.8506L18.3069 18.6738L18.3069 18.6738L18.1301 18.8506ZM18.851 18.8506L19.027 19.0281L19.0277 19.0273L18.851 18.8506ZM8.68127 15.0889C5.14548 15.0889 2.2688 12.2129 2.2688 8.67887H1.7688C1.7688 12.4892 4.8695 15.5889 8.68127 15.5889V15.0889ZM2.2688 8.67887C2.2688 5.14485 5.14548 2.26887 8.68127 2.26887V1.76887C4.8695 1.76887 1.7688 4.86854 1.7688 8.67887H2.2688ZM8.68127 2.26887C12.2171 2.26887 15.0936 5.14484 15.0936 8.67887H15.5936C15.5936 4.86855 12.4931 1.76887 8.68127 1.76887V2.26887ZM15.0936 8.67887C15.0936 12.2129 12.2171 15.0889 8.68127 15.0889V15.5889C12.4931 15.5889 15.5936 12.4892 15.5936 8.67887H15.0936ZM19.0277 17.9538L14.6323 13.5599L14.2788 13.9135L18.6742 18.3074L19.0277 17.9538ZM14.6434 13.9017C15.8688 12.5062 16.6124 10.6779 16.6124 8.67887H16.1124C16.1124 10.5516 15.4163 12.2638 14.2677 13.5717L14.6434 13.9017ZM16.6124 8.67887C16.6124 4.30649 13.0551 0.75 8.68127 0.75V1.25C12.7791 1.25 16.1124 4.58276 16.1124 8.67887H16.6124ZM8.68127 0.75C4.3083 0.75 0.75 4.30646 0.75 8.67887H1.25C1.25 4.58278 4.58427 1.25 8.68127 1.25V0.75ZM0.75 8.67887C0.75 13.0513 4.3083 16.6077 8.68127 16.6077V16.1077C4.58427 16.1077 1.25 12.775 1.25 8.67887H0.75ZM8.68127 16.6077C10.6776 16.6077 12.5041 15.8658 13.8994 14.6448L13.5701 14.2686C12.2621 15.4131 10.5514 16.1077 8.68127 16.1077V16.6077ZM13.558 14.6335L17.9534 19.0274L18.3069 18.6738L13.9115 14.2799L13.558 14.6335ZM17.9534 19.0273C18.1012 19.1752 18.2963 19.25 18.4901 19.25V18.75C18.4241 18.75 18.3577 18.7246 18.3069 18.6738L17.9534 19.0273ZM18.4901 19.25C18.6852 19.25 18.8789 19.175 19.027 19.0281L18.6749 18.673C18.6227 18.7248 18.5565 18.75 18.4901 18.75V19.25ZM19.0277 19.0273C19.324 18.731 19.324 18.2501 19.0277 17.9538L18.6742 18.3073C18.7752 18.4084 18.7752 18.5727 18.6742 18.6738L19.0277 19.0273Z" />
    </symbol>
    <!-- Burger menu -->
    <symbol id="burger" viewBox="0 0 16 14">
      <path d="M15 0H1C0.447715 0 0 0.447715 0 1C0 1.55228 0.447715 2 1 2H15C15.5523 2 16 1.55228 16 1C16 0.447715 15.5523 0 15 0Z" />
      <path d="M15 6H1C0.447715 6 0 6.44772 0 7C0 7.55228 0.447715 8 1 8H15C15.5523 8 16 7.55228 16 7C16 6.44772 15.5523 6 15 6Z" />
      <path d="M15 12H1C0.447715 12 0 12.4477 0 13C0 13.5523 0.447715 14 1 14H15C15.5523 14 16 13.5523 16 13C16 12.4477 15.5523 12 15 12Z" />
    </symbol>
    <!-- Facebook -->
    <symbol id="facebook" viewBox="0 0 24 24">
      <path d="M9 8h-3v4h3v12h5v-12h3.642l.358-4h-4v-1.667c0-.955.192-1.333 1.115-1.333h2.885v-5h-3.808c-3.596 0-5.192 1.583-5.192 4.615v3.385z"/>
    </symbol>
    <!-- Twitter -->
    <symbol id="twitter" viewBox="0 0 24 24">
      <path d="M24 4.557c-.883.392-1.832.656-2.828.775 1.017-.609 1.798-1.574 2.165-2.724-.951.564-2.005.974-3.127 1.195-.897-.957-2.178-1.555-3.594-1.555-3.179 0-5.515 2.966-4.797 6.045-4.091-.205-7.719-2.165-10.148-5.144-1.29 2.213-.669 5.108 1.523 6.574-.806-.026-1.566-.247-2.229-.616-.054 2.281 1.581 4.415 3.949 4.89-.693.188-1.452.232-2.224.084.626 1.956 2.444 3.379 4.6 3.419-2.07 1.623-4.678 2.348-7.29 2.04 2.179 1.397 4.768 2.212 7.548 2.212 9.142 0 14.307-7.721 13.995-14.646.962-.695 1.797-1.562 2.457-2.549z"/>
    </symbol>
    <!-- Instagram -->
    <symbol id="instagram" viewBox="0 0 493 493">
      <path d="M85.1 13.2C68.9 19.5 55.2 27.9 41.5 41.6C27.8 55.2 19.4 69 13.1 85.1C6.99995 100.7 2.89995 118.6 1.69995 144.8C0.499951 171 0.199951 179.4 0.199951 246.2C0.199951 313 0.499951 321.4 1.69995 347.6C2.89995 373.8 7.09995 391.7 13.1 407.3C19.4 423.5 27.8 437.2 41.5 450.9C55.2 464.6 68.9 473 85.1 479.3C100.7 485.4 118.6 489.5 144.8 490.7C171 491.9 179.4 492.2 246.2 492.2C313 492.2 321.4 491.9 347.6 490.7C373.8 489.5 391.7 485.3 407.3 479.3C423.5 473 437.2 464.6 450.9 450.9C464.6 437.2 473 423.5 479.3 407.3C485.4 391.7 489.5 373.8 490.7 347.6C491.9 321.4 492.2 313 492.2 246.2C492.2 179.4 491.9 171 490.7 144.8C489.5 118.6 485.3 100.7 479.3 85.1C473 69 464.6 55.2 451 41.6C437.3 27.9 423.6 19.5 407.4 13.2C391.8 7.09999 373.9 2.99999 347.7 1.79999C321.5 0.599988 313.1 0.299988 246.3 0.299988C179.5 0.299988 171.1 0.599988 144.9 1.79999C118.6 2.89999 100.7 7.09999 85.1 13.2ZM345.6 46C369.6 47.1 382.6 51.1 391.3 54.5C402.8 59 411 64.3 419.6 72.9C428.2 81.5 433.5 89.7 438 101.2C441.4 109.9 445.4 122.9 446.5 146.9C447.7 172.8 447.9 180.6 447.9 246.3C447.9 312 447.6 319.8 446.5 345.7C445.4 369.7 441.4 382.7 438 391.4C433.5 402.9 428.2 411.1 419.6 419.7C411 428.3 402.8 433.6 391.3 438.1C382.6 441.5 369.6 445.5 345.6 446.6C319.7 447.8 311.9 448 246.2 448C180.5 448 172.7 447.7 146.8 446.6C122.8 445.5 109.8 441.5 101.1 438.1C89.6 433.6 81.4 428.3 72.8 419.7C64.2 411.1 58.9 402.9 54.4 391.4C51 382.7 47 369.7 45.9 345.7C44.7 319.8 44.5 312 44.5 246.3C44.5 180.6 44.8 172.8 45.9 146.9C47 122.9 51 109.9 54.4 101.2C58.9 89.7 64.2 81.5 72.8 72.9C81.4 64.3 89.6 59 101.1 54.5C109.8 51.1 122.8 47.1 146.8 46C172.7 44.8 180.5 44.6 246.2 44.6C311.9 44.6 319.7 44.8 345.6 46Z" fill="url(#paint0_radial)"/>
      <path d="M119.9 246.3C119.9 316.1 176.5 372.6 246.2 372.6C315.9 372.6 372.5 316 372.5 246.3C372.5 176.6 316 120 246.2 120C176.4 120 119.9 176.5 119.9 246.3ZM328.2 246.3C328.2 291.6 291.5 328.3 246.2 328.3C200.9 328.3 164.2 291.6 164.2 246.3C164.2 201 200.9 164.3 246.2 164.3C291.5 164.3 328.2 201 328.2 246.3Z" fill="url(#paint1_radial)"/>
      <path d="M377.6 144.5C393.892 144.5 407.1 131.292 407.1 115C407.1 98.7076 393.892 85.5 377.6 85.5C361.308 85.5 348.1 98.7076 348.1 115C348.1 131.292 361.308 144.5 377.6 144.5Z" fill="#654C9F"/>
      <defs>
        <radialGradient id="paint0_radial" cx="0" cy="0" r="1" gradientUnits="userSpaceOnUse" gradientTransform="translate(9.15191 447.164) rotate(-3.00009) scale(711.314 604.61)">
        <stop stop-color="#FED576"/>
        <stop offset="0.2634" stop-color="#F47133"/>
        <stop offset="0.6091" stop-color="#BC3081"/>
        <stop offset="1" stop-color="#4C63D2"/>
        </radialGradient>
        <radialGradient id="paint1_radial" cx="0" cy="0" r="1" gradientUnits="userSpaceOnUse" gradientTransform="translate(124.481 349.437) rotate(-3.00009) scale(365.269 310.475)">
        <stop stop-color="#FED576"/>
        <stop offset="0.2634" stop-color="#F47133"/>
        <stop offset="0.6091" stop-color="#BC3081"/>
        <stop offset="1" stop-color="#4C63D2"/>
        </radialGradient>
      </defs>
    </symbol>
    <!-- Location -->
    <symbol id="location" viewBox="0 0 156 178">
      <path d="M78 92.3088C66.5284 92.3088 57.1898 83.3664 57.1898 72.3814C57.1898 61.3965 66.5284 52.4541 78 52.4541C89.4716 52.4541 98.8102 61.3965 98.8102 72.3814C98.8102 83.3664 89.4716 92.3088 78 92.3088ZM78 42.4904C60.7969 42.4904 46.7847 55.8998 46.7847 72.3814C46.7847 88.863 60.7969 102.272 78 102.272C95.2031 102.272 109.215 88.863 109.215 72.3814C109.215 55.8998 95.2031 42.4904 78 42.4904ZM125.118 119.85L78 164.969L30.8822 119.85C4.90408 94.9741 4.90408 54.4966 30.8822 29.6207C43.8712 17.1744 60.9269 10.9554 78 10.9554C95.0644 10.9554 112.129 17.1827 125.118 29.6207C151.096 54.4966 151.096 94.9741 125.118 119.85ZM132.479 22.5714C102.435 -6.19045 53.5653 -6.19045 23.5206 22.5714C-6.50686 51.3332 -6.50686 98.1375 23.5206 126.899L74.3235 175.539C75.338 176.518 76.6733 177 78 177C79.3267 177 80.662 176.518 81.6765 175.539L132.479 126.899C162.507 98.1375 162.507 51.3332 132.479 22.5714Z" />
      <path d="M125.118 119.85L125.152 119.886L125.152 119.886L125.118 119.85ZM78 164.969L77.9654 165.005L78 165.038L78.0346 165.005L78 164.969ZM30.8822 119.85L30.8476 119.886L30.8476 119.886L30.8822 119.85ZM30.8822 29.6207L30.9168 29.6568L30.9168 29.6568L30.8822 29.6207ZM132.479 22.5714L132.514 22.5352L132.514 22.5352L132.479 22.5714ZM23.5206 22.5714L23.486 22.5352L23.486 22.5352L23.5206 22.5714ZM23.5206 126.899L23.486 126.935L23.486 126.935L23.5206 126.899ZM74.3235 175.539L74.3583 175.503L74.3581 175.503L74.3235 175.539ZM81.6765 175.539L81.6419 175.503L81.6417 175.503L81.6765 175.539ZM132.479 126.899L132.514 126.935L132.514 126.935L132.479 126.899ZM78 92.2588C66.5539 92.2588 57.2398 83.3367 57.2398 72.3814H57.1398C57.1398 83.396 66.5028 92.3588 78 92.3588V92.2588ZM57.2398 72.3814C57.2398 61.4261 66.5539 52.5041 78 52.5041V52.4041C66.5028 52.4041 57.1398 61.3668 57.1398 72.3814H57.2398ZM78 52.5041C89.4461 52.5041 98.7602 61.4261 98.7602 72.3814H98.8602C98.8602 61.3668 89.4972 52.4041 78 52.4041V52.5041ZM98.7602 72.3814C98.7602 83.3367 89.4461 92.2588 78 92.2588V92.3588C89.4972 92.3588 98.8602 83.396 98.8602 72.3814H98.7602ZM78 42.4404C60.7713 42.4404 46.7347 55.8702 46.7347 72.3814H46.8347C46.8347 55.9295 60.8224 42.5404 78 42.5404V42.4404ZM46.7347 72.3814C46.7347 88.8926 60.7713 102.322 78 102.322V102.222C60.8224 102.222 46.8347 88.8334 46.8347 72.3814H46.7347ZM78 102.322C95.2287 102.322 109.265 88.8926 109.265 72.3814H109.165C109.165 88.8334 95.1776 102.222 78 102.222V102.322ZM109.265 72.3814C109.265 55.8702 95.2287 42.4404 78 42.4404V42.5404C95.1776 42.5404 109.165 55.9295 109.165 72.3814H109.265ZM125.083 119.814L77.9654 164.933L78.0346 165.005L125.152 119.886L125.083 119.814ZM78.0346 164.933L30.9168 119.814L30.8476 119.886L77.9654 165.005L78.0346 164.933ZM30.9168 119.814C4.95922 94.9576 4.95922 54.5131 30.9168 29.6568L30.8476 29.5845C4.84894 54.4802 4.84894 94.9905 30.8476 119.886L30.9168 119.814ZM30.9168 29.6568C43.8959 17.22 60.939 11.0054 78 11.0054V10.9054C60.9149 10.9054 43.8466 17.1288 30.8476 29.5846L30.9168 29.6568ZM78 11.0054C95.0524 11.0054 112.104 17.2283 125.083 29.6568L125.152 29.5845C112.153 17.1371 95.0764 10.9054 78 10.9054V11.0054ZM125.083 29.6568C151.041 54.5131 151.041 94.9576 125.083 119.814L125.152 119.886C151.151 94.9905 151.151 54.4802 125.152 29.5845L125.083 29.6568ZM132.514 22.5352C102.45 -6.24508 53.5501 -6.24508 23.486 22.5352L23.5551 22.6075C53.5806 -6.13583 102.419 -6.13583 132.445 22.6075L132.514 22.5352ZM23.486 22.5352C-6.56199 51.3167 -6.56199 98.1539 23.486 126.935L23.5552 126.863C-6.45172 98.1211 -6.45172 51.3496 23.5552 22.6075L23.486 22.5352ZM23.486 126.935L74.2889 175.575L74.3581 175.503L23.5551 126.863L23.486 126.935ZM74.2888 175.575C75.3133 176.564 76.6614 177.05 78 177.05V176.95C76.6853 176.95 75.3627 176.473 74.3583 175.503L74.2888 175.575ZM78 177.05C79.3386 177.05 80.6867 176.564 81.7112 175.575L81.6417 175.503C80.6373 176.473 79.3147 176.95 78 176.95V177.05ZM81.711 175.575L132.514 126.935L132.445 126.863L81.6419 175.503L81.711 175.575ZM132.514 126.935C162.562 98.1539 162.562 51.3167 132.514 22.5352L132.445 22.6075C162.452 51.3496 162.452 98.1211 132.445 126.863L132.514 126.935Z" fill="#333333"/>
    </symbol>
    <!-- Distance -->
    <symbol id="distance" viewBox="0 0 193 195">
      <path d="M116 91.3088C104.528 91.3088 95.1898 82.3664 95.1898 71.3814C95.1898 60.3965 104.528 51.4541 116 51.4541C127.472 51.4541 136.81 60.3965 136.81 71.3814C136.81 82.3664 127.472 91.3088 116 91.3088ZM116 41.4904C98.7969 41.4904 84.7847 54.8998 84.7847 71.3814C84.7847 87.863 98.7969 101.272 116 101.272C133.203 101.272 147.215 87.863 147.215 71.3814C147.215 54.8998 133.203 41.4904 116 41.4904ZM163.118 118.85L116 163.969L68.8822 118.85C42.9041 93.9741 42.9041 53.4966 68.8822 28.6207C81.8712 16.1744 98.9269 9.95537 116 9.95537C133.064 9.95537 150.129 16.1827 163.118 28.6207C189.096 53.4966 189.096 93.9741 163.118 118.85ZM170.479 21.5714C140.435 -7.19045 91.5653 -7.19045 61.5206 21.5714C31.4931 50.3332 31.4931 97.1375 61.5206 125.899L112.324 174.539C113.338 175.518 114.673 176 116 176C117.327 176 118.662 175.518 119.676 174.539L170.479 125.899C200.507 97.1375 200.507 50.3332 170.479 21.5714Z" />
      <path d="M0 190C0 187.239 2.23858 185 5 185H27C29.7614 185 32 187.239 32 190C32 192.761 29.7614 195 27 195H5C2.23858 195 0 192.761 0 190Z" />
      <path d="M43 190C43 187.239 45.2386 185 48 185H70C72.7614 185 75 187.239 75 190C75 192.761 72.7614 195 70 195H48C45.2386 195 43 192.761 43 190Z" />
      <path d="M86 190C86 187.239 88.2386 185 91 185H113C115.761 185 118 187.239 118 190C118 192.761 115.761 195 113 195H91C88.2386 195 86 192.761 86 190Z" />
    </symbol>
    <!-- Star -->
    <symbol id="star" viewBox="0 0 24 24">
      <path d="M12 .587l3.668 7.568 8.332 1.151-6.064 5.828 1.48 8.279-7.416-3.967-7.417 3.967 1.481-8.279-6.064-5.828 8.332-1.151z"/>
    </symbol>
    <!-- Arrow left -->
    <symbol id="arrow-left" viewBox="0 0 96 153">
      <path d="M95.625 133.875L76.1366 153L6.68784e-06 76.5L76.1366 -1.70373e-06L95.625 19.125L38.25 76.5L95.625 133.875Z" />
    </symbol>
    <!-- Arrow right -->
    <symbol id="arrow-right" viewBox="0 0 97 153">
      <path d="M0.958374 19.125L20.4468 0L96.5834 76.5L20.4468 153L0.958374 133.875L58.3334 76.5L0.958374 19.125Z" />
    </symbol>
    <!-- Arrow-up-small -->
    <symbol id="arrow-up-small" viewBox="0 0 154 97">
      <path d="M19.4375 96.3125L0.312499 76.8241L76.8125 0.687497L153.312 76.8241L134.188 96.3125L76.8125 38.9375L19.4375 96.3125Z" />
    </symbol>
    <!-- Arrow-down-small -->
    <symbol id="arrow-down-small" viewBox="0 0 153 97">
      <path d="M133.875 0.687499L153 20.1759L76.5 96.3125L-8.51864e-07 20.1759L19.125 0.687494L76.5 58.0625L133.875 0.687499Z" />
    </symbol>
    <!-- Arrow- -->
    <symbol id="arrow-right-big" viewBox="0 0 318 212">
      <path d="M216.759 2.81576C212.927 -0.938588 206.695 -0.938588 202.847 2.81576C199.015 6.58569 199.015 12.6924 202.847 16.4467L284.507 96.4409H9.8418C4.40414 96.4409 0 100.756 0 106.084C0 111.412 4.40414 115.727 9.8418 115.727H284.317L202.847 195.549C199.015 199.304 199.015 205.41 202.847 209.18C204.787 211.05 207.299 212 209.811 212C212.323 212 214.851 211.05 216.759 209.18L315.114 112.814C318.962 109.044 318.962 102.953 315.114 99.1826L216.759 2.81576Z" />
    </symbol>
    <!-- Arrow down -->
    <symbol id="arrow-down" viewBox="0 0 202 101">
      <path d="M201.286 6.86524C201.286 5.29735 200.67 3.71934 199.447 2.52038C197.003 0.112185 193.033 0.112185 190.589 2.52038L103.958 87.5037C102.328 89.0921 99.6749 89.0921 98.0453 87.5037L11.4142 2.52038C8.96978 0.112185 5.00019 0.112185 2.55576 2.52038C0.10088 4.91831 0.10088 8.81215 2.55576 11.2101L89.1869 96.1939C92.3416 99.299 96.5411 101 101.002 101C105.462 101 109.662 99.299 112.816 96.1939L199.447 11.2101C200.67 10.0111 201.286 8.43312 201.286 6.86524Z" />
    </symbol>
    <!-- Heart -->
    <symbol id="heart" viewBox="0 0 24 24">
      <path d="M6.28 3c3.236.001 4.973 3.491 5.72 5.031.75-1.547 2.469-5.021 5.726-5.021 2.058 0 4.274 1.309 4.274 4.182 0 3.442-4.744 7.851-10 13-5.258-5.151-10-9.559-10-13 0-2.676 1.965-4.193 4.28-4.192zm.001-2c-3.183 0-6.281 2.187-6.281 6.192 0 4.661 5.57 9.427 12 15.808 6.43-6.381 12-11.147 12-15.808 0-4.011-3.097-6.182-6.274-6.182-2.204 0-4.446 1.042-5.726 3.238-1.285-2.206-3.522-3.248-5.719-3.248z" />
    </symbol>
    <!-- Image -->
    <symbol id="image" viewBox="0 0 24 24">
      <path d="M24 22h-24v-20h24v20zm-1-19h-22v18h22v-18zm-1 16h-19l4-7.492 3 3.048 5.013-7.556 6.987 12zm-11.848-2.865l-2.91-2.956-2.574 4.821h15.593l-5.303-9.108-4.806 7.243zm-4.652-11.135c1.38 0 2.5 1.12 2.5 2.5s-1.12 2.5-2.5 2.5-2.5-1.12-2.5-2.5 1.12-2.5 2.5-2.5zm0 1c.828 0 1.5.672 1.5 1.5s-.672 1.5-1.5 1.5-1.5-.672-1.5-1.5.672-1.5 1.5-1.5z" fill="#333333"/>
    </symbol>
    <!-- Duration -->
    <symbol id="duration" viewBox="0 0 94 94">
      <path d="M62.061 58.3714C63.0799 59.386 63.0799 61.045 62.061 62.0639C61.5516 62.5733 60.881 62.8259 60.2148 62.8259C59.5487 62.8259 58.8825 62.5733 58.3687 62.0639L45.1539 48.8441C44.6619 48.3564 44.3876 47.6946 44.3876 47.0022V17.3056C44.3876 15.8643 45.5588 14.6974 47 14.6974C48.4413 14.6974 49.6125 15.8643 49.6125 17.3056V45.918L62.061 58.3714ZM47 87.933C24.4282 87.933 6.07115 69.5708 6.07115 47.0022C6.07115 24.4293 24.4282 6.06705 47 6.06705C69.5719 6.06705 87.9289 24.4293 87.9289 47.0022C87.9289 69.5708 69.5719 87.933 47 87.933ZM47 0.846191C21.5501 0.846191 0.846191 21.5511 0.846191 47.0022C0.846191 72.449 21.5501 93.1539 47 93.1539C72.45 93.1539 93.1539 72.449 93.1539 47.0022C93.1539 21.5511 72.45 0.846191 47 0.846191Z" />
      <path d="M0.64624 47.0023C0.64624 21.4407 21.4397 0.64624 47.0001 0.64624C72.5605 0.64624 93.3539 21.4407 93.3539 47.0023C93.3539 72.5595 72.5605 93.3539 47.0001 93.3539C21.4397 93.3539 0.64624 72.5595 0.64624 47.0023ZM47.0001 1.04624C21.6606 1.04624 1.04624 21.6616 1.04624 47.0023C1.04624 72.3386 21.6606 92.9539 47.0001 92.9539C72.3396 92.9539 92.9539 72.3386 92.9539 47.0023C92.9539 21.6616 72.3396 1.04624 47.0001 1.04624ZM47.0001 6.2671C24.5387 6.2671 6.2712 24.5398 6.2712 47.0023C6.2712 69.4604 24.5387 87.7331 47.0001 87.7331C69.4615 87.7331 87.729 69.4604 87.729 47.0023C87.729 24.5398 69.4614 6.2671 47.0001 6.2671ZM5.8712 47.0023C5.8712 24.3189 24.3178 5.8671 47.0001 5.8671C69.6824 5.8671 88.129 24.3189 88.129 47.0023C88.129 69.6813 69.6824 88.1331 47.0001 88.1331C24.3178 88.1331 5.8712 69.6813 5.8712 47.0023ZM47.0001 14.8974C45.6689 14.8974 44.5876 15.9753 44.5876 17.3057V47.0023C44.5876 47.6415 44.8408 48.2522 45.2947 48.7021L58.5096 61.9219C58.9845 62.3929 59.5995 62.6259 60.2149 62.6259C60.8308 62.6259 61.4496 62.3925 61.9196 61.9225C62.8606 60.9815 62.8601 59.4494 61.9199 58.5132L49.4126 46.0009V17.3057C49.4126 15.9753 48.3313 14.8974 47.0001 14.8974ZM44.1876 17.3057C44.1876 15.7535 45.4488 14.4974 47.0001 14.4974C48.5513 14.4974 49.8126 15.7535 49.8126 17.3057V45.8352L62.2022 58.2297C63.2997 59.3226 63.2993 61.1085 62.2025 62.2053C61.6536 62.7542 60.9313 63.0259 60.2149 63.0259C59.4979 63.0259 58.7805 62.7539 58.2279 62.206L45.0131 48.9862C44.4833 48.4608 44.1876 47.7475 44.1876 47.0023V17.3057Z" />
    </symbol>
    <!-- Elevation -->
    <symbol id="elevation" viewBox="0 0 111 111">
      <path d="M110.351 105.797L63.4196 43.0994C62.1754 41.4378 60.594 40.2201 58.8538 39.5426V23.9205H81.6812C81.6829 23.9205 81.6838 23.9196 81.6855 23.9205C83.4782 23.9205 84.9311 22.4639 84.9311 20.6685C84.9311 19.7192 84.5254 18.8647 83.8788 18.2711L77.5803 11.9602L83.976 5.55119C84.9049 4.62133 85.1821 3.22231 84.68 2.00706C84.178 0.792664 82.9939 0 81.6812 0H55.6081C53.8154 0 52.3625 1.45576 52.3625 3.25195V39.5426C50.6222 40.2201 49.0408 41.4378 47.7975 43.0994L0.865451 105.797C0.127581 106.783 0.009251 108.1 0.558639 109.202C1.10887 110.304 2.233 111 3.46194 111H107.754C108.984 111 110.107 110.304 110.658 109.202C111.207 108.101 111.089 106.783 110.351 105.797ZM58.8538 6.50391H73.8461L70.6952 9.66016C69.4282 10.9305 69.4282 12.9892 70.6952 14.2595L73.8461 17.4166H58.8538V6.50391ZM52.9905 47.0017C53.7495 45.9872 54.6793 45.4291 55.6081 45.4291C56.5379 45.4291 57.4676 45.988 58.2266 47.0017L73.656 67.6144L66.7303 75.2836L58.0153 65.6336C57.4 64.9518 56.526 64.5631 55.6081 64.5631C54.6911 64.5631 53.8171 64.9518 53.2018 65.6336L44.4868 75.2836L37.5612 67.6144L52.9905 47.0017ZM9.95317 104.496L33.5938 72.914L42.0805 82.3117C42.695 82.9934 43.5698 83.3821 44.4868 83.3821C45.4039 83.3821 46.2778 82.9934 46.8932 82.3117L55.6081 72.6617L64.3231 82.3117C64.9384 82.9934 65.8124 83.3821 66.7294 83.3821C67.6465 83.3821 68.5204 82.9934 69.1366 82.3117L77.6234 72.9149L101.263 104.496H9.95317Z" />
    </symbol>
    <!-- Pickup -->
    <symbol id="pickup" viewBox="0 0 78 75">
      <path d="M28.2629 58.2348C28.2629 56.9579 29.3016 55.9202 30.5798 55.9202H47.4202C48.6983 55.9202 49.7371 56.9579 49.7371 58.2348C49.7371 59.5116 48.6983 60.5493 47.4202 60.5493H30.5798C29.3016 60.5493 28.2629 59.5116 28.2629 58.2348ZM54.3594 58.2348C54.3594 56.8846 55.4561 55.789 56.8077 55.789C58.1553 55.789 59.2482 56.8846 59.2482 58.2348C59.2482 59.5849 58.1553 60.6766 56.8077 60.6766C55.4561 60.6766 54.3594 59.5849 54.3594 58.2348ZM18.748 58.2348C18.748 56.8846 19.8408 55.789 21.1923 55.789C22.5439 55.789 23.6406 56.8846 23.6406 58.2348C23.6406 59.5849 22.5439 60.6766 21.1923 60.6766C19.8408 60.6766 18.748 59.5849 18.748 58.2348ZM69.2921 23.0995V31.2468V47.3601H41.315V16.8463H69.2921V23.0995ZM69.2921 59.3187C69.2921 62.5321 66.6701 65.1515 63.4534 65.1515H63.0827H53.9231H24.0769H14.9173H14.5427C11.326 65.1515 8.70786 62.5321 8.70786 59.3187V51.9854H69.2921V59.3187ZM8.70786 31.2468V23.0995V16.8463H36.685V47.3601H8.70786V31.2468ZM18.6205 4.62915H59.3795C64.0443 4.62915 67.9406 7.87728 68.9909 12.2171H9.00906C10.0555 7.87728 13.9557 4.62915 18.6205 4.62915ZM75.6831 20.7849H73.9222V14.5317C73.9222 6.51939 67.4 0 59.3795 0H18.6205C10.6 0 4.07397 6.51939 4.07397 14.5317V20.7849H2.31309C1.0349 20.7849 0 21.8226 0 23.0995V31.2468C0 32.5237 1.0349 33.5614 2.31309 33.5614H4.07397V59.3187C4.07397 64.4224 7.75405 68.6658 12.6003 69.58V72.6854C12.6003 73.9623 13.6391 75 14.9173 75H24.0769C25.3551 75 26.3939 73.9623 26.3939 72.6854V69.7768H51.6061V72.6854C51.6061 73.9623 52.641 75 53.9231 75H63.0827C64.3609 75 65.3958 73.9623 65.3958 72.6854V69.58C70.2421 68.6658 73.9222 64.4224 73.9222 59.3187V33.5614H75.6831C76.9612 33.5614 78 32.5237 78 31.2468V23.0995C78 21.8226 76.9612 20.7849 75.6831 20.7849Z" />
    </symbol>
    <!-- Tick -->
    <symbol id="tick" viewBox="0 0 328 246">
      <path d="M25.4573 130.691C19.6427 124.747 10.2003 124.747 4.36091 130.691C-1.45364 136.61 -1.45364 146.289 4.36091 152.234L91.7282 241.529C94.6355 244.501 98.4621 246 102.264 246C106.091 246 109.892 244.501 112.825 241.529L323.639 26.001C329.454 20.0819 329.454 10.403 323.639 4.45841C317.825 -1.48614 308.382 -1.48614 302.543 4.45841L102.264 209.215L25.4573 130.691Z"/>
    </symbol>
    <!-- Season -->
    <symbol id="season" viewBox="0 0 200 209">
      <path d="M138.203 153.832C138.203 146.738 144.009 140.98 151.163 140.98C158.316 140.98 164.122 146.738 164.122 153.832C164.122 160.926 158.316 166.684 151.163 166.684C144.009 166.684 138.203 160.926 138.203 153.832ZM87.0409 153.832C87.0409 146.738 92.8466 140.98 100 140.98C107.164 140.98 112.959 146.738 112.959 153.832C112.959 160.926 107.164 166.684 100 166.684C92.8466 166.684 87.0409 160.926 87.0409 153.832ZM35.8888 153.832C35.8888 146.738 41.6841 140.98 48.8479 140.98C56.0013 140.98 61.807 146.738 61.807 153.832C61.807 160.926 56.0013 166.684 48.8479 166.684C41.6841 166.684 35.8888 160.926 35.8888 153.832ZM138.203 111.903C138.203 104.808 144.009 99.0506 151.163 99.0506C158.316 99.0506 164.122 104.808 164.122 111.903C164.122 119.008 158.316 124.755 151.163 124.755C144.009 124.755 138.203 119.008 138.203 111.903ZM87.0409 111.903C87.0409 104.808 92.8466 99.0506 100 99.0506C107.164 99.0506 112.959 104.808 112.959 111.903C112.959 119.008 107.164 124.755 100 124.755C92.8466 124.755 87.0409 119.008 87.0409 111.903ZM35.8888 111.903C35.8888 104.808 41.6841 99.0506 48.8479 99.0506C56.0013 99.0506 61.807 104.808 61.807 111.903C61.807 119.008 56.0013 124.755 48.8479 124.755C41.6841 124.755 35.8888 119.008 35.8888 111.903ZM186.93 62.0156H13.0807V43.5803C13.0807 34.4501 20.5659 27.0163 29.7824 27.0163H41.7152V34.1108C41.7152 37.514 44.504 40.2799 47.9459 40.2799C51.3775 40.2799 54.1663 37.514 54.1663 34.1108V27.0163H145.854V34.1108C145.854 37.514 148.643 40.2799 152.075 40.2799C155.506 40.2799 158.285 37.514 158.285 34.1108V27.0163H170.218C179.434 27.0163 186.93 34.4501 186.93 43.5803V62.0156ZM186.93 179.434C186.93 188.574 179.434 196.008 170.218 196.008H29.7824C20.5659 196.008 13.0807 188.574 13.0807 179.434V74.3537H186.93V179.434ZM170.218 14.6782H158.285V6.82289C158.285 3.40933 155.506 0.653809 152.075 0.653809C148.643 0.653809 145.854 3.40933 145.854 6.82289V14.6782H54.1663V6.82289C54.1663 3.40933 51.3775 0.653809 47.9459 0.653809C44.504 0.653809 41.7152 3.40933 41.7152 6.82289V14.6782H29.7824C13.7132 14.6782 0.640015 27.6435 0.640015 43.5803V179.434C0.640015 195.381 13.7132 208.346 29.7824 208.346H170.218C186.297 208.346 199.36 195.381 199.36 179.434V43.5803C199.36 27.6435 186.297 14.6782 170.218 14.6782Z" />
      <path d="M41.6152 6.82291C41.6152 3.35313 44.4498 0.553833 47.9459 0.553833C51.4318 0.553833 54.2663 3.35324 54.2663 6.82291V14.5782H145.755V6.82291C145.755 3.35324 148.589 0.553833 152.075 0.553833C155.561 0.553833 158.385 3.35346 158.385 6.82291V14.5782H170.218C186.352 14.5782 199.46 27.5876 199.46 43.5803V179.434C199.46 195.437 186.352 208.446 170.218 208.446H29.7825C13.6587 208.446 0.540039 195.437 0.540039 179.434V43.5803C0.540039 27.5875 13.6587 14.5782 29.7825 14.5782H41.6152V6.82291ZM47.9459 0.753833C44.5582 0.753833 41.8152 3.46558 41.8152 6.82291V14.7782H29.7825C13.7676 14.7782 0.740039 27.6996 0.740039 43.5803V179.434C0.740039 195.325 13.7676 208.246 29.7825 208.246H170.218C186.243 208.246 199.26 195.325 199.26 179.434V43.5803C199.26 27.6995 186.243 14.7782 170.218 14.7782H158.185V6.82291C158.185 3.46525 155.452 0.753833 152.075 0.753833C148.698 0.753833 145.955 3.46547 145.955 6.82291V14.7782H54.0663V6.82291C54.0663 3.46547 51.3232 0.753833 47.9459 0.753833ZM29.7825 27.1164C20.6204 27.1164 13.1808 34.5061 13.1808 43.5803V61.9156H186.83V43.5803C186.83 34.5061 179.38 27.1164 170.218 27.1164H158.385V34.1108C158.385 37.5699 155.561 40.3799 152.075 40.3799C148.589 40.3799 145.755 37.5701 145.755 34.1108V27.1164H54.2663V34.1108C54.2663 37.5701 51.4319 40.3799 47.9459 40.3799C44.4497 40.3799 41.6152 37.5702 41.6152 34.1108V27.1164H29.7825ZM12.9808 43.5803C12.9808 34.3941 20.5115 26.9164 29.7825 26.9164H41.8152V34.1108C41.8152 37.458 44.5583 40.1799 47.9459 40.1799C51.3231 40.1799 54.0663 37.4581 54.0663 34.1108V26.9164H145.955V34.1108C145.955 37.4581 148.698 40.1799 152.075 40.1799C155.452 40.1799 158.185 37.4583 158.185 34.1108V26.9164H170.218C179.489 26.9164 187.03 34.394 187.03 43.5803V62.1156H12.9808V43.5803ZM12.9808 74.2538H187.03V179.434C187.03 188.63 179.489 196.108 170.218 196.108H29.7825C20.5114 196.108 12.9808 188.63 12.9808 179.434V74.2538ZM13.1808 74.4538V179.434C13.1808 188.518 20.6205 195.908 29.7825 195.908H170.218C179.38 195.908 186.83 188.518 186.83 179.434V74.4538H13.1808ZM48.8479 99.1506C41.7386 99.1506 35.9888 104.864 35.9888 111.903C35.9888 118.952 41.7385 124.655 48.8479 124.655C55.9469 124.655 61.707 118.952 61.707 111.903C61.707 104.864 55.9469 99.1506 48.8479 99.1506ZM35.7888 111.903C35.7888 104.752 41.6296 98.9506 48.8479 98.9506C56.0558 98.9506 61.907 104.752 61.907 111.903C61.907 119.064 56.0557 124.855 48.8479 124.855C41.6297 124.855 35.7888 119.064 35.7888 111.903ZM100 99.1506C92.9011 99.1506 87.1409 104.864 87.1409 111.903C87.1409 118.952 92.901 124.655 100 124.655C107.109 124.655 112.859 118.952 112.859 111.903C112.859 104.864 107.109 99.1506 100 99.1506ZM86.9409 111.903C86.9409 104.752 92.7922 98.9506 100 98.9506C107.218 98.9506 113.059 104.752 113.059 111.903C113.059 119.064 107.218 124.855 100 124.855C92.7922 124.855 86.9409 119.064 86.9409 111.903ZM151.163 99.1506C144.064 99.1506 138.303 104.864 138.303 111.903C138.303 118.952 144.064 124.655 151.163 124.655C158.262 124.655 164.022 118.952 164.022 111.903C164.022 104.864 158.262 99.1506 151.163 99.1506ZM138.103 111.903C138.103 104.752 143.955 98.9506 151.163 98.9506C158.37 98.9506 164.222 104.752 164.222 111.903C164.222 119.064 158.37 124.855 151.163 124.855C143.955 124.855 138.103 119.064 138.103 111.903ZM48.8479 141.08C41.7386 141.08 35.9888 146.794 35.9888 153.832C35.9888 160.871 41.7386 166.584 48.8479 166.584C55.9469 166.584 61.707 160.87 61.707 153.832C61.707 146.794 55.9469 141.08 48.8479 141.08ZM35.7888 153.832C35.7888 146.682 41.6296 140.88 48.8479 140.88C56.0558 140.88 61.907 146.682 61.907 153.832C61.907 160.982 56.0558 166.784 48.8479 166.784C41.6296 166.784 35.7888 160.982 35.7888 153.832ZM100 141.08C92.9011 141.08 87.1409 146.794 87.1409 153.832C87.1409 160.87 92.9011 166.584 100 166.584C107.109 166.584 112.859 160.871 112.859 153.832C112.859 146.794 107.109 141.08 100 141.08ZM86.9409 153.832C86.9409 146.682 92.7922 140.88 100 140.88C107.218 140.88 113.059 146.682 113.059 153.832C113.059 160.982 107.218 166.784 100 166.784C92.7922 166.784 86.9409 160.982 86.9409 153.832ZM151.163 141.08C144.064 141.08 138.303 146.794 138.303 153.832C138.303 160.87 144.064 166.584 151.163 166.584C158.262 166.584 164.022 160.87 164.022 153.832C164.022 146.794 158.262 141.08 151.163 141.08ZM138.103 153.832C138.103 146.682 143.955 140.88 151.163 140.88C158.37 140.88 164.222 146.682 164.222 153.832C164.222 160.982 158.37 166.784 151.163 166.784C143.955 166.784 138.103 160.982 138.103 153.832Z" />
    </symbol>
    <!-- Difficulty -->
    <symbol id="difficulty" viewBox="0 0 140 177">
      <path d="M19.8685 119.763C13.1538 119.763 7.71057 125.206 7.71057 131.921V156.974C7.71057 163.688 13.1538 169.132 19.8685 169.132C26.5831 169.132 32.0264 163.688 32.0264 156.974V131.921C32.0264 125.206 26.5831 119.763 19.8685 119.763ZM0.710571 131.921C0.710571 121.34 9.28785 112.763 19.8685 112.763C30.4491 112.763 39.0264 121.34 39.0264 131.921V156.974C39.0264 167.554 30.4491 176.132 19.8685 176.132C9.28785 176.132 0.710571 167.554 0.710571 156.974V131.921Z" />
      <path d="M69.9737 63.3947C63.2591 63.3947 57.8158 68.8379 57.8158 75.5525V156.974C57.8158 163.688 63.2591 169.131 69.9737 169.131C76.6883 169.131 82.1316 163.688 82.1316 156.974V75.5525C82.1316 68.8379 76.6883 63.3947 69.9737 63.3947ZM50.8158 75.5525C50.8158 64.9719 59.3931 56.3947 69.9737 56.3947C80.5543 56.3947 89.1316 64.9719 89.1316 75.5525V156.974C89.1316 167.554 80.5543 176.131 69.9737 176.131C59.3931 176.131 50.8158 167.554 50.8158 156.974V75.5525Z" />
      <path d="M120.079 7.02637C113.364 7.02637 107.921 12.4696 107.921 19.1843V156.974C107.921 163.688 113.364 169.132 120.079 169.132C126.794 169.132 132.237 163.688 132.237 156.974V19.1843C132.237 12.4696 126.794 7.02637 120.079 7.02637ZM100.921 19.1843C100.921 8.60365 109.498 0.0263672 120.079 0.0263672C130.66 0.0263672 139.237 8.60365 139.237 19.1843V156.974C139.237 167.554 130.66 176.132 120.079 176.132C109.498 176.132 100.921 167.554 100.921 156.974V19.1843Z" />
    </symbol>
    <!-- Plus -->
    <symbol id="plus" viewBox="0 0 90 90">
      <path d="M44.5423 25.1572C43.0947 25.1572 41.9307 26.3302 41.9307 27.773V41.9287H27.7701C26.3224 41.9287 25.1584 43.1017 25.1584 44.5444C25.1584 45.9872 26.3224 47.1602 27.7701 47.1602H41.9307V61.3159C41.9307 62.7587 43.0947 63.9317 44.5423 63.9317C45.9898 63.9317 47.1582 62.7589 47.1582 61.3159V47.1602H61.3146C62.7621 47.1602 63.9305 45.9874 63.9305 44.5444C63.9305 43.1015 62.7621 41.9287 61.3146 41.9287H47.1582V27.773C47.1582 26.33 45.9898 25.1572 44.5423 25.1572Z"/>
      <path d="M44.5423 0C19.9828 0 0 19.9819 0 44.5444C0 69.107 19.9828 89.0889 44.5423 89.0889C69.1061 89.0889 89.0889 69.107 89.0889 44.5444C89.0889 19.9819 69.1061 0 44.5423 0ZM5.22749 44.5444C5.22749 22.8638 22.8649 5.23145 44.5423 5.23145C66.224 5.23145 83.8614 22.8638 83.8614 44.5444C83.8614 66.225 66.224 83.8574 44.5423 83.8574C22.8649 83.8574 5.22749 66.2251 5.22749 44.5444Z"/>
    </symbol>
    <!-- Minus -->
    <symbol id="minus" viewBox="0 0 164 164">
      <path d="M51.1289 77.2477C48.5174 77.2477 46.4174 79.3636 46.4174 81.9667C46.4174 84.5697 48.5174 86.6856 51.1289 86.6856H112.93C115.541 86.6856 117.649 84.5699 117.649 81.9667C117.649 79.3634 115.541 77.2477 112.93 77.2477H51.1289Z"/>
      <path d="M82.0294 0C36.8373 0 0.0666504 36.7689 0.0666504 81.9667C0.0666504 127.164 36.8373 163.933 82.0294 163.933C127.229 163.933 164 127.164 164 81.9667C164 36.7689 127.229 0 82.0294 0ZM9.49734 81.9667C9.49734 41.9679 42.0365 9.43797 82.0294 9.43797C122.03 9.43797 154.569 41.9679 154.569 81.9667C154.569 121.965 122.03 154.495 82.0294 154.495C42.0365 154.495 9.49734 121.965 9.49734 81.9667Z"/>
    </symbol>
    <!-- Persons -->
    <symbol id="persons" viewBox="0 0 207 191">
      <path d="M188.868 148.693L156.245 132.246C153.169 130.693 151.256 127.573 151.256 124.102V112.459C152.038 111.495 152.861 110.397 153.712 109.184C157.943 103.158 161.334 96.4499 163.799 89.2149C168.618 86.9869 171.746 82.1831 171.746 76.7594V62.9849C171.746 59.6688 170.516 56.4559 168.331 53.9455V35.6289C168.522 33.7349 169.273 22.4606 161.187 13.1594C154.173 5.09101 142.791 1 127.352 1C111.913 1 100.531 5.09101 93.5168 13.1559C88.6164 18.7931 86.967 25.1431 86.4685 29.7025C80.6153 26.6514 73.7172 25.1053 65.8834 25.1053C30.4058 25.1053 28.3398 55.5984 28.3193 56.0977V71.866C26.1064 74.2972 24.9044 77.1037 24.9044 79.8896V91.7838C24.9044 95.4995 26.5538 98.9638 29.3813 101.305C32.1986 112.015 39.1275 120.108 41.8253 122.948V132.394C41.8253 135.104 40.3637 137.591 37.8264 138.989L15.107 153.359C6.40581 158.146 1 167.33 1 177.323V178.346C1 185.002 6.39615 190.398 13.0526 190.398H48.8088H55.6386H193.842C200.499 190.398 205.895 185.002 205.895 178.346V176.476C205.895 164.637 199.369 153.989 188.868 148.693ZM48.8088 175.804V183.511H14.018C10.6004 183.511 7.82983 180.741 7.82983 177.323C7.82983 169.85 11.8731 162.984 18.5561 159.303L41.2721 144.932C45.8242 142.429 48.6517 137.629 48.6517 132.394V120.028L47.5658 119.006C47.477 118.923 38.4035 110.279 35.7228 98.4989L35.4121 97.1352L34.2442 96.3776C32.6733 95.3514 31.7342 93.6331 31.7342 91.7838V79.8896C31.7342 78.6499 32.5709 77.1761 34.0256 75.8468L35.1491 74.8241L35.1423 56.2975C35.2038 55.3091 36.9829 31.9925 65.8834 31.9925C74.0552 31.9925 80.9363 33.8968 86.3728 37.6538V53.9455C84.1873 56.4559 82.9579 59.6688 82.9579 62.9849V76.7594C82.9579 77.8062 83.0774 78.8359 83.3028 79.8345C83.395 80.234 83.5794 80.599 83.7058 80.9847C83.8936 81.5632 84.0439 82.159 84.3068 82.7065C85.1913 84.5419 86.465 86.1673 88.0701 87.4656C88.0871 87.531 88.1076 87.5895 88.1247 87.6515C88.3296 88.4401 88.5447 89.2252 88.7769 89.9932L89.0535 90.8919C89.1014 91.0504 89.1594 91.2122 89.2106 91.3706C89.3302 91.7425 89.4463 92.111 89.5692 92.476C89.7741 93.0786 89.9892 93.7019 90.2385 94.3803C90.3444 94.6627 90.4605 94.9175 90.5698 95.1965C90.8498 95.9162 91.1298 96.6118 91.4235 97.3005C91.4952 97.4658 91.5567 97.6449 91.6284 97.8067L91.8196 98.2406C91.9084 98.4403 92.0006 98.6194 92.0894 98.8157C92.4241 99.5526 92.7519 100.265 93.0934 100.954C93.148 101.064 93.1993 101.185 93.2539 101.295C93.469 101.726 93.6842 102.132 93.8993 102.545C94.2681 103.254 94.6301 103.923 94.9921 104.57C95.1697 104.887 95.3438 105.197 95.518 105.496C96.0097 106.343 96.4776 107.122 96.9318 107.845C97.0308 108 97.1264 108.162 97.222 108.31C98.0484 109.601 98.7656 110.648 99.3598 111.464C99.5168 111.681 99.6534 111.867 99.7866 112.049C99.8618 112.149 99.9642 112.294 100.029 112.384V123.778C100.029 127.112 98.226 130.17 95.3267 131.768L86.2909 136.737L84.7166 136.596L84.0746 137.956L64.8623 148.524C54.9591 153.979 48.8088 164.427 48.8088 175.804ZM192.03 183.511H63.3454C59.0891 183.511 55.6386 180.061 55.6386 175.804C55.6386 166.951 60.4263 158.814 68.1338 154.578L98.5982 137.821C103.697 135.015 106.862 129.633 106.862 123.782V109.945L106.2 109.143L106.07 108.988C106.063 108.978 105.852 108.719 105.507 108.265C105.486 108.237 105.466 108.21 105.442 108.182C105.261 107.945 105.049 107.659 104.807 107.318C104.287 106.588 103.649 105.662 102.939 104.546C102.922 104.522 102.908 104.494 102.891 104.47C102.556 103.943 102.201 103.368 101.839 102.759C101.812 102.714 101.784 102.669 101.757 102.621C100.985 101.316 100.166 99.8384 99.3495 98.2027C98.9124 97.3177 98.4787 96.3948 98.0553 95.4341C97.9972 95.2998 97.9357 95.1689 97.8777 95.0346C97.6899 94.6042 97.502 94.153 97.3108 93.6882C97.2425 93.5194 97.1742 93.3438 97.1059 93.1716C96.9283 92.7205 96.7473 92.2659 96.5561 91.746C96.2078 90.8093 95.88 89.8313 95.5658 88.8223L95.378 88.2094C95.3575 88.1405 95.3336 88.0716 95.3131 87.9993C94.9921 86.9111 94.6847 85.7989 94.4252 84.6556L94.1144 83.2919L92.95 82.5343C90.9693 81.2464 89.7878 79.0873 89.7878 76.7594V62.9849C89.7878 61.0531 90.6005 59.2521 92.0757 57.9056L93.2027 56.8829V35.4361V34.217L93.1105 34.1447C92.9944 31.6584 93.1412 24.0377 98.6529 17.6981C104.311 11.1862 113.969 7.88722 127.352 7.88722C140.687 7.88722 150.324 11.1621 155.989 17.6257C162.638 25.2051 161.539 34.9023 161.532 34.985L161.501 56.8829L162.628 57.9091C164.103 59.2521 164.916 61.0531 164.916 62.9849V76.7594C164.916 79.7656 162.963 82.3966 160.06 83.2988L158.359 83.8257L157.813 85.5303C155.528 92.6964 152.274 99.315 148.135 105.204C147.121 106.653 146.134 107.938 145.277 108.919L144.426 109.897V124.102C144.426 130.197 147.783 135.676 153.189 138.403L185.812 154.85C193.987 158.972 199.065 167.257 199.065 176.476C199.065 180.361 195.915 183.511 192.03 183.511Z" />
    </symbol>
    <!-- Messages -->
    <symbol id="messages" viewBox="0 0 114 114">
      <path d="M79.0004 66.9464C79.0004 68.7284 77.5566 70.1668 75.7801 70.1668H38.2093C36.4327 70.1668 34.9943 68.7284 34.9943 66.9464C34.9943 65.1645 36.4327 63.7261 38.2093 63.7261H75.7801C77.5566 63.7261 79.0004 65.1645 79.0004 66.9464ZM34.9943 47.0446C34.9943 45.2626 36.4327 43.8242 38.2093 43.8242H65.0456C66.8221 43.8242 68.2659 45.2626 68.2659 47.0446C68.2659 48.8265 66.8221 50.2649 65.0456 50.2649H38.2093C36.4327 50.2649 34.9943 48.8265 34.9943 47.0446ZM104.511 102.177C104.629 103.1 104.173 103.707 103.894 103.986C103.604 104.265 102.992 104.705 102.074 104.582L83.364 101.861C81.7109 101.619 80.0202 101.887 78.4798 102.628C70.225 106.557 60.9611 108.13 51.6274 107.174C29.7773 104.92 8.81285 83.7407 6.77329 61.8475C5.41001 47.2539 10.1171 33.3419 20.0304 22.6717C29.5841 12.388 43.0183 6.54303 57.0215 6.54303C57.3543 6.54303 57.6763 6.54839 58.0037 6.55376C84.636 7.06902 106.808 29.15 107.436 55.7718C107.624 63.6509 106.041 71.2295 102.745 78.2822C102.042 79.7689 101.779 81.3952 101.988 82.9839L104.511 102.177ZM108.375 82.1466C108.327 81.7763 108.391 81.4059 108.574 81.0248C112.299 73.0491 114.086 64.499 113.871 55.6215C113.163 25.5969 88.1623 0.698049 58.1272 0.113015C41.9878 -0.0211671 26.3316 6.42494 15.3126 18.292C4.29898 30.1483 -1.15415 46.2395 0.35942 62.4433C2.66197 87.1489 26.3155 111.039 50.9673 113.577C52.9639 113.787 54.9605 113.889 56.9464 113.889C65.3998 113.883 73.7029 112.037 81.2547 108.441C81.6357 108.253 82.0383 108.183 82.4462 108.237L101.151 110.958C103.797 111.334 106.486 110.475 108.413 108.57C110.351 106.659 111.252 104.024 110.893 101.34L108.375 82.1466Z" />
      <path d="M15.2759 18.2579C26.3048 6.38013 41.9748 -0.0713258 58.1275 0.0629682C88.1894 0.648523 113.212 25.5689 113.921 55.6203C114.136 64.5054 112.347 73.0631 108.619 81.046C108.44 81.4193 108.378 81.7804 108.425 82.1401L110.942 101.333C111.304 104.033 110.397 106.684 108.448 108.605C106.51 110.522 103.805 111.386 101.144 111.008L82.4396 108.287C82.042 108.234 81.6493 108.302 81.2767 108.486C73.7181 112.085 65.407 113.933 56.9463 113.939C54.9587 113.939 52.9604 113.837 50.9621 113.627C38.6224 112.356 26.5358 105.742 17.2468 96.3581C7.95775 86.9736 1.46215 74.8145 0.309588 62.4479C-1.20529 46.23 4.25255 30.1248 15.2759 18.2579ZM58.1264 0.162962C42.0006 0.0289677 26.3581 6.46972 15.3492 18.326C4.34532 30.1718 -1.10309 46.2489 0.409154 62.4386C1.55914 74.7776 8.04156 86.9162 17.3179 96.2877C26.5942 105.659 38.6602 112.26 50.9724 113.528C52.9673 113.737 54.9621 113.839 56.9463 113.839C65.3924 113.833 73.6881 111.989 81.2329 108.396C81.6223 108.204 82.0347 108.132 82.4527 108.187L101.158 110.909C103.789 111.282 106.462 110.428 108.378 108.534C110.304 106.634 111.201 104.015 110.843 101.347L108.326 82.1531C108.276 81.772 108.343 81.392 108.529 81.0032C112.25 73.0346 114.036 64.4923 113.821 55.6226C113.114 25.6249 88.1347 0.747624 58.1264 0.162962ZM57.0215 6.59298C43.0322 6.59298 29.6112 12.4322 20.067 22.7057C10.1634 33.3653 5.46106 47.2633 6.82303 61.8428C7.84152 72.7756 13.5859 83.5334 21.8069 91.8403C30.0279 100.147 40.7213 105.999 51.6325 107.124C60.9572 108.079 70.2119 106.508 78.4583 102.583C80.0073 101.838 81.708 101.568 83.3712 101.811L102.081 104.532C102.978 104.653 103.575 104.224 103.859 103.95C104.132 103.677 104.577 103.085 104.461 102.184L101.939 82.9904C101.728 81.3918 101.993 79.7559 102.7 78.2607C105.992 71.2152 107.574 63.6444 107.386 55.7729C106.759 29.178 84.6083 7.11852 58.0028 6.6037C58.0028 6.6037 58.0029 6.6037 58.0028 6.6037L57.9886 6.60347C57.6661 6.59818 57.3489 6.59298 57.0215 6.59298ZM19.9937 22.6376C29.5569 12.3437 43.0044 6.49298 57.0215 6.49298C57.3497 6.49298 57.6675 6.49819 57.9898 6.50347L58.0045 6.50371C84.6636 7.01949 106.857 29.122 107.486 55.7705C107.674 63.6573 106.089 71.2436 102.79 78.3033C102.091 79.7816 101.83 81.3984 102.038 82.9773L104.56 102.171C104.681 103.115 104.214 103.736 103.929 104.021C103.633 104.306 103.006 104.758 102.068 104.631L83.3567 101.91C81.7138 101.67 80.0331 101.937 78.5014 102.673C70.2381 106.606 60.9648 108.18 51.6223 107.224C40.6834 106.095 29.9695 100.23 21.7358 91.9106C13.5021 83.5909 7.74452 72.8125 6.72346 61.8521C5.35886 47.2444 10.0706 33.3183 19.9937 22.6376ZM38.2092 43.8741C36.4604 43.8741 35.0443 45.2901 35.0443 47.0445C35.0443 48.7989 36.4604 50.2149 38.2092 50.2149H65.0455C66.7945 50.2149 68.2159 48.7988 68.2159 47.0445C68.2159 45.2902 66.7945 43.8741 65.0455 43.8741H38.2092ZM34.9443 47.0445C34.9443 45.235 36.405 43.7741 38.2092 43.7741H65.0455C66.8496 43.7741 68.3159 45.2349 68.3159 47.0445C68.3159 48.8541 66.8496 50.3149 65.0455 50.3149H38.2092C36.405 50.3149 34.9443 48.854 34.9443 47.0445ZM38.2092 63.776C36.4604 63.776 35.0443 65.192 35.0443 66.9464C35.0443 68.7008 36.4604 70.1168 38.2092 70.1168H75.78C77.529 70.1168 78.9504 68.7007 78.9504 66.9464C78.9504 65.1921 77.529 63.776 75.78 63.776H38.2092ZM34.9443 66.9464C34.9443 65.1369 36.405 63.676 38.2092 63.676H75.78C77.5841 63.676 79.0504 65.1368 79.0504 66.9464C79.0504 68.756 77.5841 70.2168 75.78 70.2168H38.2092C36.405 70.2168 34.9443 68.7559 34.9443 66.9464Z" />
    </symbol>
    <symbol id="see-more" viewBox="0 0 190 227">
      <path d="M95.0001 226.167C147.007 226.167 189.167 184.007 189.167 132C189.167 79.9932 147.007 37.8334 95.0001 37.8334C42.9933 37.8334 0.833433 79.9932 0.833431 132C0.833429 184.007 42.9933 226.167 95.0001 226.167Z" fill="white"/>
      <path fill-rule="evenodd" clip-rule="evenodd" d="M137.777 90.0286C139.334 88.44 139.334 85.8561 137.777 84.261C136.214 82.6725 133.683 82.6725 132.126 84.261L98.9631 118.115L98.9631 4.24676C98.9631 1.99247 97.1742 0.166624 94.9654 0.166624C92.7567 0.166624 90.9678 1.99247 90.9678 4.24676L90.9678 118.036L57.8756 84.261C56.3192 82.6724 53.7876 82.6724 52.2247 84.261C51.4497 85.0652 51.0557 86.1066 51.0557 87.1481C51.0557 88.1895 51.4497 89.2376 52.2247 90.0286L92.1755 130.804C93.7384 132.399 96.2635 132.399 97.8264 130.804L137.777 90.0286Z" fill="#FF9514"/>
    </symbol>
    <symbol id="read-more" viewBox="0 0 226 189">
      <path d="M226 94.1667C226 42.1598 183.84 0 131.833 0C79.8266 0 37.6667 42.1598 37.6667 94.1667C37.6667 146.173 79.8266 188.333 131.833 188.333C183.84 188.333 226 146.173 226 94.1667Z" fill="white"/>
      <path fill-rule="evenodd" clip-rule="evenodd" d="M89.8619 51.3895C88.2734 49.8331 85.6895 49.8331 84.0944 51.3895C82.5058 52.9524 82.5058 55.484 84.0944 57.0405L117.948 90.2036H4.08014C1.82585 90.2036 0 91.9926 0 94.2013C0 96.41 1.82585 98.199 4.08014 98.199H117.869L84.0944 131.291C82.5058 132.848 82.5058 135.379 84.0944 136.942C84.8985 137.717 85.94 138.111 86.9815 138.111C88.0229 138.111 89.071 137.717 89.8619 136.942L130.637 96.9913C132.232 95.4284 132.232 92.9032 130.637 91.3403L89.8619 51.3895Z" fill="#FF9514"/>
    </symbol>
    <symbol id="read-more-grey" viewBox="0 0 226 189">
      <path d="M226 94.1667C226 42.1598 183.84 0 131.833 0C79.8266 0 37.6667 42.1598 37.6667 94.1667C37.6667 146.173 79.8266 188.333 131.833 188.333C183.84 188.333 226 146.173 226 94.1667Z" fill="#f8f8f9"/>
      <path fill-rule="evenodd" clip-rule="evenodd" d="M89.8619 51.3895C88.2734 49.8331 85.6895 49.8331 84.0944 51.3895C82.5058 52.9524 82.5058 55.484 84.0944 57.0405L117.948 90.2036H4.08014C1.82585 90.2036 0 91.9926 0 94.2013C0 96.41 1.82585 98.199 4.08014 98.199H117.869L84.0944 131.291C82.5058 132.848 82.5058 135.379 84.0944 136.942C84.8985 137.717 85.94 138.111 86.9815 138.111C88.0229 138.111 89.071 137.717 89.8619 136.942L130.637 96.9913C132.232 95.4284 132.232 92.9032 130.637 91.3403L89.8619 51.3895Z" fill="#FF9514"/>
    </symbol>
  </defs>
</svg>