<svg version="1.1" xmlns="http://www.w3.org/2000/svg">  
  <defs>
    <!-- Loader -->
    <symbol id="loader" viewBox="0 0 100 100">
      <path d="M10,50c0,0,0,0.5,0.1,1.4c0,0.5,0.1,1,0.2,1.7c0,0.3,0.1,0.7,0.1,1.1c0.1,0.4,0.1,0.8,0.2,1.2c0.2,0.8,0.3,1.8,0.5,2.8 c0.3,1,0.6,2.1,0.9,3.2c0.3,1.1,0.9,2.3,1.4,3.5c0.5,1.2,1.2,2.4,1.8,3.7c0.3,0.6,0.8,1.2,1.2,1.9c0.4,0.6,0.8,1.3,1.3,1.9 c1,1.2,1.9,2.6,3.1,3.7c2.2,2.5,5,4.7,7.9,6.7c3,2,6.5,3.4,10.1,4.6c3.6,1.1,7.5,1.5,11.2,1.6c4-0.1,7.7-0.6,11.3-1.6 c3.6-1.2,7-2.6,10-4.6c3-2,5.8-4.2,7.9-6.7c1.2-1.2,2.1-2.5,3.1-3.7c0.5-0.6,0.9-1.3,1.3-1.9c0.4-0.6,0.8-1.3,1.2-1.9 c0.6-1.3,1.3-2.5,1.8-3.7c0.5-1.2,1-2.4,1.4-3.5c0.3-1.1,0.6-2.2,0.9-3.2c0.2-1,0.4-1.9,0.5-2.8c0.1-0.4,0.1-0.8,0.2-1.2 c0-0.4,0.1-0.7,0.1-1.1c0.1-0.7,0.1-1.2,0.2-1.7C90,50.5,90,50,90,50s0,0.5,0,1.4c0,0.5,0,1,0,1.7c0,0.3,0,0.7,0,1.1 c0,0.4-0.1,0.8-0.1,1.2c-0.1,0.9-0.2,1.8-0.4,2.8c-0.2,1-0.5,2.1-0.7,3.3c-0.3,1.2-0.8,2.4-1.2,3.7c-0.2,0.7-0.5,1.3-0.8,1.9 c-0.3,0.7-0.6,1.3-0.9,2c-0.3,0.7-0.7,1.3-1.1,2c-0.4,0.7-0.7,1.4-1.2,2c-1,1.3-1.9,2.7-3.1,4c-2.2,2.7-5,5-8.1,7.1 c-0.8,0.5-1.6,1-2.4,1.5c-0.8,0.5-1.7,0.9-2.6,1.3L66,87.7l-1.4,0.5c-0.9,0.3-1.8,0.7-2.8,1c-3.8,1.1-7.9,1.7-11.8,1.8L47,90.8 c-1,0-2-0.2-3-0.3l-1.5-0.2l-0.7-0.1L41.1,90c-1-0.3-1.9-0.5-2.9-0.7c-0.9-0.3-1.9-0.7-2.8-1L34,87.7l-1.3-0.6 c-0.9-0.4-1.8-0.8-2.6-1.3c-0.8-0.5-1.6-1-2.4-1.5c-3.1-2.1-5.9-4.5-8.1-7.1c-1.2-1.2-2.1-2.7-3.1-4c-0.5-0.6-0.8-1.4-1.2-2 c-0.4-0.7-0.8-1.3-1.1-2c-0.3-0.7-0.6-1.3-0.9-2c-0.3-0.7-0.6-1.3-0.8-1.9c-0.4-1.3-0.9-2.5-1.2-3.7c-0.3-1.2-0.5-2.3-0.7-3.3 c-0.2-1-0.3-2-0.4-2.8c-0.1-0.4-0.1-0.8-0.1-1.2c0-0.4,0-0.7,0-1.1c0-0.7,0-1.2,0-1.7C10,50.5,10,50,10,50z" fill="#337ab7">
        <animateTransform attributeName="transform" type="rotate" from="0 50 50" to="360 50 50" repeatCount="indefinite" dur="1s"></animateTransform>
      </path>
    </symbol>
    <!-- Search -->
    <symbol id="search" viewBox="0 0 20 20">
      <path d="M8.68127 15.3389C5.00749 15.3389 2.0188 12.351 2.0188 8.67887C2.0188 5.0067 5.00749 2.01887 8.68127 2.01887C12.3551 2.01887 15.3436 5.0067 15.3436 8.67887C15.3436 12.351 12.3551 15.3389 8.68127 15.3389ZM18.851 18.1306L14.4556 13.7367C15.6425 12.385 16.3624 10.6147 16.3624 8.67887C16.3624 4.44462 12.9171 1 8.68127 1C4.44628 1 1 4.44462 1 8.67887C1 12.9131 4.44628 16.3577 8.68127 16.3577C10.6145 16.3577 12.3831 15.6394 13.7347 14.4567L18.1301 18.8506C18.2295 18.9499 18.3602 19 18.4901 19C18.6209 19 18.7508 18.9499 18.851 18.8506C19.0496 18.6519 19.0496 18.3292 18.851 18.1306Z" />
      <path d="M18.851 18.1306L19.0277 17.9538L19.0277 17.9538L18.851 18.1306ZM14.4556 13.7367L14.2677 13.5717L14.1131 13.7478L14.2788 13.9135L14.4556 13.7367ZM13.7347 14.4567L13.9115 14.2799L13.7461 14.1146L13.5701 14.2686L13.7347 14.4567ZM18.1301 18.8506L18.3069 18.6738L18.3069 18.6738L18.1301 18.8506ZM18.851 18.8506L19.027 19.0281L19.0277 19.0273L18.851 18.8506ZM8.68127 15.0889C5.14548 15.0889 2.2688 12.2129 2.2688 8.67887H1.7688C1.7688 12.4892 4.8695 15.5889 8.68127 15.5889V15.0889ZM2.2688 8.67887C2.2688 5.14485 5.14548 2.26887 8.68127 2.26887V1.76887C4.8695 1.76887 1.7688 4.86854 1.7688 8.67887H2.2688ZM8.68127 2.26887C12.2171 2.26887 15.0936 5.14484 15.0936 8.67887H15.5936C15.5936 4.86855 12.4931 1.76887 8.68127 1.76887V2.26887ZM15.0936 8.67887C15.0936 12.2129 12.2171 15.0889 8.68127 15.0889V15.5889C12.4931 15.5889 15.5936 12.4892 15.5936 8.67887H15.0936ZM19.0277 17.9538L14.6323 13.5599L14.2788 13.9135L18.6742 18.3074L19.0277 17.9538ZM14.6434 13.9017C15.8688 12.5062 16.6124 10.6779 16.6124 8.67887H16.1124C16.1124 10.5516 15.4163 12.2638 14.2677 13.5717L14.6434 13.9017ZM16.6124 8.67887C16.6124 4.30649 13.0551 0.75 8.68127 0.75V1.25C12.7791 1.25 16.1124 4.58276 16.1124 8.67887H16.6124ZM8.68127 0.75C4.3083 0.75 0.75 4.30646 0.75 8.67887H1.25C1.25 4.58278 4.58427 1.25 8.68127 1.25V0.75ZM0.75 8.67887C0.75 13.0513 4.3083 16.6077 8.68127 16.6077V16.1077C4.58427 16.1077 1.25 12.775 1.25 8.67887H0.75ZM8.68127 16.6077C10.6776 16.6077 12.5041 15.8658 13.8994 14.6448L13.5701 14.2686C12.2621 15.4131 10.5514 16.1077 8.68127 16.1077V16.6077ZM13.558 14.6335L17.9534 19.0274L18.3069 18.6738L13.9115 14.2799L13.558 14.6335ZM17.9534 19.0273C18.1012 19.1752 18.2963 19.25 18.4901 19.25V18.75C18.4241 18.75 18.3577 18.7246 18.3069 18.6738L17.9534 19.0273ZM18.4901 19.25C18.6852 19.25 18.8789 19.175 19.027 19.0281L18.6749 18.673C18.6227 18.7248 18.5565 18.75 18.4901 18.75V19.25ZM19.0277 19.0273C19.324 18.731 19.324 18.2501 19.0277 17.9538L18.6742 18.3073C18.7752 18.4084 18.7752 18.5727 18.6742 18.6738L19.0277 19.0273Z" />
    </symbol>
    <!-- Burger menu -->
    <svg id="burger" viewBox="0 0 16 14">
      <path d="M15 0H1C0.447715 0 0 0.447715 0 1C0 1.55228 0.447715 2 1 2H15C15.5523 2 16 1.55228 16 1C16 0.447715 15.5523 0 15 0Z" />
      <path d="M15 6H1C0.447715 6 0 6.44772 0 7C0 7.55228 0.447715 8 1 8H15C15.5523 8 16 7.55228 16 7C16 6.44772 15.5523 6 15 6Z" />
      <path d="M15 12H1C0.447715 12 0 12.4477 0 13C0 13.5523 0.447715 14 1 14H15C15.5523 14 16 13.5523 16 13C16 12.4477 15.5523 12 15 12Z" />
    </svg>
    <!-- Facebook -->
    <symbol id="facebook" viewBox="0 0 24 24">
      <path d="M9 8h-3v4h3v12h5v-12h3.642l.358-4h-4v-1.667c0-.955.192-1.333 1.115-1.333h2.885v-5h-3.808c-3.596 0-5.192 1.583-5.192 4.615v3.385z"/>
    </symbol>
    <!-- Twitter -->
    <symbol id="twitter" viewBox="0 0 24 24">
      <path d="M24 4.557c-.883.392-1.832.656-2.828.775 1.017-.609 1.798-1.574 2.165-2.724-.951.564-2.005.974-3.127 1.195-.897-.957-2.178-1.555-3.594-1.555-3.179 0-5.515 2.966-4.797 6.045-4.091-.205-7.719-2.165-10.148-5.144-1.29 2.213-.669 5.108 1.523 6.574-.806-.026-1.566-.247-2.229-.616-.054 2.281 1.581 4.415 3.949 4.89-.693.188-1.452.232-2.224.084.626 1.956 2.444 3.379 4.6 3.419-2.07 1.623-4.678 2.348-7.29 2.04 2.179 1.397 4.768 2.212 7.548 2.212 9.142 0 14.307-7.721 13.995-14.646.962-.695 1.797-1.562 2.457-2.549z"/>
    </symbol>
    <!-- Instagram -->
    <symbol id="instagram" viewBox="0 0 493 493">
      <path d="M85.1 13.2C68.9 19.5 55.2 27.9 41.5 41.6C27.8 55.2 19.4 69 13.1 85.1C6.99995 100.7 2.89995 118.6 1.69995 144.8C0.499951 171 0.199951 179.4 0.199951 246.2C0.199951 313 0.499951 321.4 1.69995 347.6C2.89995 373.8 7.09995 391.7 13.1 407.3C19.4 423.5 27.8 437.2 41.5 450.9C55.2 464.6 68.9 473 85.1 479.3C100.7 485.4 118.6 489.5 144.8 490.7C171 491.9 179.4 492.2 246.2 492.2C313 492.2 321.4 491.9 347.6 490.7C373.8 489.5 391.7 485.3 407.3 479.3C423.5 473 437.2 464.6 450.9 450.9C464.6 437.2 473 423.5 479.3 407.3C485.4 391.7 489.5 373.8 490.7 347.6C491.9 321.4 492.2 313 492.2 246.2C492.2 179.4 491.9 171 490.7 144.8C489.5 118.6 485.3 100.7 479.3 85.1C473 69 464.6 55.2 451 41.6C437.3 27.9 423.6 19.5 407.4 13.2C391.8 7.09999 373.9 2.99999 347.7 1.79999C321.5 0.599988 313.1 0.299988 246.3 0.299988C179.5 0.299988 171.1 0.599988 144.9 1.79999C118.6 2.89999 100.7 7.09999 85.1 13.2ZM345.6 46C369.6 47.1 382.6 51.1 391.3 54.5C402.8 59 411 64.3 419.6 72.9C428.2 81.5 433.5 89.7 438 101.2C441.4 109.9 445.4 122.9 446.5 146.9C447.7 172.8 447.9 180.6 447.9 246.3C447.9 312 447.6 319.8 446.5 345.7C445.4 369.7 441.4 382.7 438 391.4C433.5 402.9 428.2 411.1 419.6 419.7C411 428.3 402.8 433.6 391.3 438.1C382.6 441.5 369.6 445.5 345.6 446.6C319.7 447.8 311.9 448 246.2 448C180.5 448 172.7 447.7 146.8 446.6C122.8 445.5 109.8 441.5 101.1 438.1C89.6 433.6 81.4 428.3 72.8 419.7C64.2 411.1 58.9 402.9 54.4 391.4C51 382.7 47 369.7 45.9 345.7C44.7 319.8 44.5 312 44.5 246.3C44.5 180.6 44.8 172.8 45.9 146.9C47 122.9 51 109.9 54.4 101.2C58.9 89.7 64.2 81.5 72.8 72.9C81.4 64.3 89.6 59 101.1 54.5C109.8 51.1 122.8 47.1 146.8 46C172.7 44.8 180.5 44.6 246.2 44.6C311.9 44.6 319.7 44.8 345.6 46Z" fill="url(#paint0_radial)"/>
      <path d="M119.9 246.3C119.9 316.1 176.5 372.6 246.2 372.6C315.9 372.6 372.5 316 372.5 246.3C372.5 176.6 316 120 246.2 120C176.4 120 119.9 176.5 119.9 246.3ZM328.2 246.3C328.2 291.6 291.5 328.3 246.2 328.3C200.9 328.3 164.2 291.6 164.2 246.3C164.2 201 200.9 164.3 246.2 164.3C291.5 164.3 328.2 201 328.2 246.3Z" fill="url(#paint1_radial)"/>
      <path d="M377.6 144.5C393.892 144.5 407.1 131.292 407.1 115C407.1 98.7076 393.892 85.5 377.6 85.5C361.308 85.5 348.1 98.7076 348.1 115C348.1 131.292 361.308 144.5 377.6 144.5Z" fill="#654C9F"/>
      <defs>
        <radialGradient id="paint0_radial" cx="0" cy="0" r="1" gradientUnits="userSpaceOnUse" gradientTransform="translate(9.15191 447.164) rotate(-3.00009) scale(711.314 604.61)">
        <stop stop-color="#FED576"/>
        <stop offset="0.2634" stop-color="#F47133"/>
        <stop offset="0.6091" stop-color="#BC3081"/>
        <stop offset="1" stop-color="#4C63D2"/>
        </radialGradient>
        <radialGradient id="paint1_radial" cx="0" cy="0" r="1" gradientUnits="userSpaceOnUse" gradientTransform="translate(124.481 349.437) rotate(-3.00009) scale(365.269 310.475)">
        <stop stop-color="#FED576"/>
        <stop offset="0.2634" stop-color="#F47133"/>
        <stop offset="0.6091" stop-color="#BC3081"/>
        <stop offset="1" stop-color="#4C63D2"/>
        </radialGradient>
      </defs>
    </symbol>
    <!-- Location -->
    <symbol id="location" viewBox="0 0 156 178">
      <path d="M78 92.3088C66.5284 92.3088 57.1898 83.3664 57.1898 72.3814C57.1898 61.3965 66.5284 52.4541 78 52.4541C89.4716 52.4541 98.8102 61.3965 98.8102 72.3814C98.8102 83.3664 89.4716 92.3088 78 92.3088ZM78 42.4904C60.7969 42.4904 46.7847 55.8998 46.7847 72.3814C46.7847 88.863 60.7969 102.272 78 102.272C95.2031 102.272 109.215 88.863 109.215 72.3814C109.215 55.8998 95.2031 42.4904 78 42.4904ZM125.118 119.85L78 164.969L30.8822 119.85C4.90408 94.9741 4.90408 54.4966 30.8822 29.6207C43.8712 17.1744 60.9269 10.9554 78 10.9554C95.0644 10.9554 112.129 17.1827 125.118 29.6207C151.096 54.4966 151.096 94.9741 125.118 119.85ZM132.479 22.5714C102.435 -6.19045 53.5653 -6.19045 23.5206 22.5714C-6.50686 51.3332 -6.50686 98.1375 23.5206 126.899L74.3235 175.539C75.338 176.518 76.6733 177 78 177C79.3267 177 80.662 176.518 81.6765 175.539L132.479 126.899C162.507 98.1375 162.507 51.3332 132.479 22.5714Z" fill="#333333"/>
      <path d="M125.118 119.85L125.152 119.886L125.152 119.886L125.118 119.85ZM78 164.969L77.9654 165.005L78 165.038L78.0346 165.005L78 164.969ZM30.8822 119.85L30.8476 119.886L30.8476 119.886L30.8822 119.85ZM30.8822 29.6207L30.9168 29.6568L30.9168 29.6568L30.8822 29.6207ZM132.479 22.5714L132.514 22.5352L132.514 22.5352L132.479 22.5714ZM23.5206 22.5714L23.486 22.5352L23.486 22.5352L23.5206 22.5714ZM23.5206 126.899L23.486 126.935L23.486 126.935L23.5206 126.899ZM74.3235 175.539L74.3583 175.503L74.3581 175.503L74.3235 175.539ZM81.6765 175.539L81.6419 175.503L81.6417 175.503L81.6765 175.539ZM132.479 126.899L132.514 126.935L132.514 126.935L132.479 126.899ZM78 92.2588C66.5539 92.2588 57.2398 83.3367 57.2398 72.3814H57.1398C57.1398 83.396 66.5028 92.3588 78 92.3588V92.2588ZM57.2398 72.3814C57.2398 61.4261 66.5539 52.5041 78 52.5041V52.4041C66.5028 52.4041 57.1398 61.3668 57.1398 72.3814H57.2398ZM78 52.5041C89.4461 52.5041 98.7602 61.4261 98.7602 72.3814H98.8602C98.8602 61.3668 89.4972 52.4041 78 52.4041V52.5041ZM98.7602 72.3814C98.7602 83.3367 89.4461 92.2588 78 92.2588V92.3588C89.4972 92.3588 98.8602 83.396 98.8602 72.3814H98.7602ZM78 42.4404C60.7713 42.4404 46.7347 55.8702 46.7347 72.3814H46.8347C46.8347 55.9295 60.8224 42.5404 78 42.5404V42.4404ZM46.7347 72.3814C46.7347 88.8926 60.7713 102.322 78 102.322V102.222C60.8224 102.222 46.8347 88.8334 46.8347 72.3814H46.7347ZM78 102.322C95.2287 102.322 109.265 88.8926 109.265 72.3814H109.165C109.165 88.8334 95.1776 102.222 78 102.222V102.322ZM109.265 72.3814C109.265 55.8702 95.2287 42.4404 78 42.4404V42.5404C95.1776 42.5404 109.165 55.9295 109.165 72.3814H109.265ZM125.083 119.814L77.9654 164.933L78.0346 165.005L125.152 119.886L125.083 119.814ZM78.0346 164.933L30.9168 119.814L30.8476 119.886L77.9654 165.005L78.0346 164.933ZM30.9168 119.814C4.95922 94.9576 4.95922 54.5131 30.9168 29.6568L30.8476 29.5845C4.84894 54.4802 4.84894 94.9905 30.8476 119.886L30.9168 119.814ZM30.9168 29.6568C43.8959 17.22 60.939 11.0054 78 11.0054V10.9054C60.9149 10.9054 43.8466 17.1288 30.8476 29.5846L30.9168 29.6568ZM78 11.0054C95.0524 11.0054 112.104 17.2283 125.083 29.6568L125.152 29.5845C112.153 17.1371 95.0764 10.9054 78 10.9054V11.0054ZM125.083 29.6568C151.041 54.5131 151.041 94.9576 125.083 119.814L125.152 119.886C151.151 94.9905 151.151 54.4802 125.152 29.5845L125.083 29.6568ZM132.514 22.5352C102.45 -6.24508 53.5501 -6.24508 23.486 22.5352L23.5551 22.6075C53.5806 -6.13583 102.419 -6.13583 132.445 22.6075L132.514 22.5352ZM23.486 22.5352C-6.56199 51.3167 -6.56199 98.1539 23.486 126.935L23.5552 126.863C-6.45172 98.1211 -6.45172 51.3496 23.5552 22.6075L23.486 22.5352ZM23.486 126.935L74.2889 175.575L74.3581 175.503L23.5551 126.863L23.486 126.935ZM74.2888 175.575C75.3133 176.564 76.6614 177.05 78 177.05V176.95C76.6853 176.95 75.3627 176.473 74.3583 175.503L74.2888 175.575ZM78 177.05C79.3386 177.05 80.6867 176.564 81.7112 175.575L81.6417 175.503C80.6373 176.473 79.3147 176.95 78 176.95V177.05ZM81.711 175.575L132.514 126.935L132.445 126.863L81.6419 175.503L81.711 175.575ZM132.514 126.935C162.562 98.1539 162.562 51.3167 132.514 22.5352L132.445 22.6075C162.452 51.3496 162.452 98.1211 132.445 126.863L132.514 126.935Z" fill="#333333"/>
    </symbol>
    <!-- Star -->
    <symbol id="star" viewBox="0 0 24 24">
      <path d="M12 .587l3.668 7.568 8.332 1.151-6.064 5.828 1.48 8.279-7.416-3.967-7.417 3.967 1.481-8.279-6.064-5.828 8.332-1.151z"/>
    </symbol>
  </defs>
</svg>